<svg width="49" height="48" viewBox="0 0 49 48" fill="none" xmlns="http://www.w3.org/2000/svg">
<rect width="48" height="48" transform="translate(0.5)" fill="#DBFD01"/>
<path d="M9.38 20.4C9.38 14.0377 14.5377 8.88 20.9 8.88H28.58C34.9423 8.88 40.1 14.0377 40.1 20.4V27.1491C40.1 33.5114 34.9423 38.6691 28.58 38.6691H20.9C14.5377 38.6691 9.38 33.5114 9.38 27.1491V20.4Z" fill="#DBFD01"/>
<path d="M14.8114 28.9958C15.6013 29.4899 16.3841 30.7886 16.7826 32.4825C17.1029 33.9083 18.7254 34.6706 20.1558 34.3742C21.6289 34.0565 22.5682 32.8496 22.4899 31.4309C22.4401 30.0545 21.0595 29.0522 19.5367 29.1228C17.6935 29.2216 14.9822 27.4783 14.8897 25.022C14.79 22.5657 17.0032 19.7707 20.2269 19.0084C21.7996 18.6413 22.6607 17.265 22.5896 15.9169C22.5398 14.4911 21.2873 13.5876 19.7857 13.9053C18.3126 14.2017 17.2238 15.5287 17.2025 16.9968C17.1811 18.0061 16.5905 19.7707 15.4092 21.1188C14.3488 22.3469 12.8971 22.9328 12.0147 23.2292C10.442 23.7727 9.3318 24.9514 9.38162 26.3983C9.43143 27.6265 10.264 28.4876 11.7158 28.4876C13.0465 28.4664 13.929 28.4664 14.8185 29.0028L14.8114 28.9958Z" fill="black"/>
<path d="M11.5165 21.7046C13.2173 21.7046 14.3204 19.5448 14.6406 18.2461C15.0107 16.8203 14.6904 14.0252 17.6651 13.3335C19.2662 13.0653 22.0203 11.3431 21.5506 10.2632C21.1592 9.11271 17.8145 10.3126 16.7755 11.5125C16.7755 11.5125 16.1137 12.1477 16.0141 12.79C15.4946 15.3169 12.4203 16.0792 11.0184 18.3872C10.4064 19.4177 10.2285 20.4765 10.4775 21.1117C10.6483 21.4787 11.0468 21.6975 11.5094 21.6975L11.5165 21.7046Z" fill="black"/>
<path d="M38.21 26.4195C37.0286 28.0429 35.4559 26.9348 35.335 25.1914C35.214 23.328 32.7517 22.4881 30.8801 23.815C28.6171 25.4102 25.2724 24.8244 24.2406 22.7069C23.3581 19.8836 18.9246 20.3988 17.6224 23.2927C16.5122 25.8972 19.3445 28.3041 22.0985 26.8501C24.632 25.3537 28.3965 25.2549 29.2576 27.6829C29.6988 28.9817 30.6382 29.3557 31.5206 29.4757C33.3424 29.6945 34.7656 26.9983 36.6657 28.1982C37.356 28.6429 36.9361 30.1886 37.6478 30.0898C37.8186 30.0404 38.0178 29.871 38.2384 29.624C38.9287 28.8617 39.2988 27.9018 39.3201 26.9701C39.3201 26.6736 39.3201 26.4266 39.2988 26.2572C39.1778 25.8125 38.5373 25.8902 38.2171 26.4054L38.21 26.4195Z" fill="black"/>
<path d="M38.5302 19.079C38.3594 19.1001 38.21 19.1989 38.089 19.3472C37.968 19.5166 37.8399 19.4954 37.7474 19.5942C37.0358 20.3565 33.6413 20.3565 33.1004 19.0295C32.6805 17.9708 33.2997 17.0674 32.4884 16.058C30.8161 13.9194 28.4534 15.1757 27.8414 14.4346C27.4216 13.8911 26.959 13.1077 28.3111 10.9479C29.1224 9.67032 27.0302 8.51983 24.9664 8.98567C23.5859 9.30329 22.5326 10.3126 22.554 11.3149C22.5753 12.0984 23.536 12.6136 24.817 12.8395C25.8987 13.0371 26.7882 13.7994 26.9305 14.7028C27.0017 15.0981 27.0017 15.5357 26.7597 15.931C25.308 18.4084 25.6496 20.18 26.2687 20.8435C27.2792 21.9517 29.101 22.3187 31.3142 20.9141C31.5135 20.7941 31.7056 20.6671 31.9049 20.5965C33.7978 19.933 36.6017 21.0129 37.1425 22.9045C37.8043 25.2337 39.6546 25.2337 40.0175 22.7351C40.2879 21.387 39.9179 18.9307 38.5444 19.079H38.5302Z" fill="black"/>
<path d="M33.6342 12.9383C34.2248 12.8677 35.4559 13.5523 35.3563 14.117C34.9151 16.7427 37.3702 19.0789 38.7508 18.0202C39.2916 17.4555 39.2917 15.9592 38.9501 15.3945C38.4804 14.6605 37.968 13.4818 36.438 13.3547C34.9649 13.2347 34.7372 12.6912 34.3956 11.8584C33.9259 10.729 33.2854 10.2632 32.2322 9.81853C31.3925 9.47268 29.6703 9.25387 29.4995 10.2844C29.1295 12.176 32.7731 13.0371 33.6342 12.9383Z" fill="black"/>
<path d="M30.6524 33.6119C29.4213 34.1271 29.2007 33.1954 29.6205 32.2849C30.1898 30.9862 29.6205 30.3227 29.6205 30.3227C28.119 28.1347 22.9027 30.0263 23.593 32.779C23.8847 34.2048 22.312 35.5811 20.5899 36.167C17.1954 37.2469 15.8148 34.6424 15.9144 33.2237C16.0354 31.3603 12.6196 29.3699 11.2674 31.0144C10.627 31.7979 11.0682 33.4707 12.3278 34.3812C12.8971 34.7483 13.1675 34.8753 14.0713 35.1153C17.0246 35.927 18.1561 38.0586 18.1561 38.0586C18.7467 39.0185 23.4222 38.8703 23.2016 37.4445C22.86 36.9293 23.5432 36.3152 23.9915 35.7717C25.0518 34.4942 26.4537 34.6424 27.7062 33.9083C28.9872 33.1743 29.0085 34.5718 28.6883 34.9388C28.368 35.3341 28.119 35.7717 27.9766 36.1881C27.6564 38.8632 33.933 35.6447 33.5132 33.7601C33.1431 32.7296 31.7198 33.1954 30.6595 33.6119H30.6524Z" fill="black"/>
</svg>
