<svg width="1206" height="704" viewBox="0 0 1206 704" fill="none" xmlns="http://www.w3.org/2000/svg">
<path d="M213.224 795.472C244.235 815.01 274.966 866.367 290.611 933.355C303.182 989.737 366.879 1019.88 423.033 1008.16C480.863 995.598 517.74 947.869 514.667 891.767C512.712 837.339 458.513 797.705 398.728 800.496C326.37 804.404 219.929 735.462 216.297 638.33C212.386 541.197 299.271 430.667 425.827 400.523C487.568 386.009 521.372 331.581 518.578 278.27C516.623 221.889 467.453 186.162 408.506 198.722C350.676 210.445 307.932 262.919 307.093 320.975C306.255 360.888 283.068 430.667 236.692 483.979C195.065 532.545 138.073 555.711 103.431 567.434C41.6898 588.926 -1.89235 635.539 0.063261 692.757C2.01887 741.323 34.7054 775.376 91.6974 775.376C143.94 774.538 178.582 774.538 213.504 795.751L213.224 795.472Z" fill="url(#paint0_linear_2875_39217)"/>
<path d="M83.8751 507.145C150.645 507.145 193.948 421.735 206.52 370.378C221.047 313.997 208.475 203.467 325.253 176.113C388.112 165.507 496.229 97.4027 477.79 54.698C462.425 9.20211 331.12 56.6518 290.331 104.102C290.331 104.102 264.35 129.222 260.438 154.621C240.044 254.545 119.355 284.689 64.319 375.96C40.2929 416.711 33.3087 458.579 43.0867 483.699C49.7916 498.213 65.4364 506.866 83.5956 506.866L83.8751 507.145Z" fill="url(#paint1_linear_2875_39217)"/>
<path d="M1131.8 693.595C1085.43 757.791 1023.68 713.97 1018.93 645.028C1014.19 571.342 917.522 538.127 844.047 590.601C755.207 653.681 623.902 630.514 583.393 546.78C548.751 435.133 374.702 455.509 323.577 569.946C279.994 672.94 391.185 768.119 499.302 710.621C598.758 651.448 746.546 647.54 780.351 743.556C797.672 794.914 834.549 809.707 869.191 814.452C940.71 823.104 996.585 716.482 1071.18 763.932C1098.28 781.516 1081.79 842.642 1109.73 838.735C1116.44 836.781 1124.26 830.082 1132.92 820.313C1160.02 790.169 1174.55 752.209 1175.38 715.366C1175.38 703.643 1175.38 693.874 1174.55 687.175C1169.8 669.591 1144.65 672.661 1132.08 693.036L1131.8 693.595Z" fill="url(#paint2_linear_2875_39217)"/>
<path d="M1144.37 403.314C1137.67 404.152 1131.8 408.059 1127.05 413.921C1122.3 420.619 1117.27 419.782 1113.64 423.69C1085.7 453.834 952.444 453.834 931.211 401.361C914.729 359.493 939.034 323.766 907.185 283.853C841.533 199.281 748.781 248.963 724.755 219.656C708.272 198.164 690.113 167.182 743.194 81.7728C775.042 31.2528 692.907 -14.2431 611.889 4.17853C557.69 16.7387 516.343 56.6523 517.181 96.2868C518.02 127.269 555.735 147.644 606.022 156.576C648.487 164.391 683.408 194.536 688.995 230.262C691.789 245.893 691.789 263.198 682.291 278.829C625.299 376.798 638.709 446.856 663.014 473.093C702.685 516.914 774.204 531.428 861.089 475.884C868.911 471.139 876.454 466.115 884.277 463.324C958.59 437.087 1068.66 479.792 1089.9 554.595C1115.88 646.703 1188.51 646.703 1202.76 547.896C1213.38 494.585 1198.85 397.453 1144.93 403.314H1144.37Z" fill="url(#paint3_linear_2875_39217)"/>
<path d="M952.165 160.483C975.353 157.692 1023.68 184.766 1019.77 207.095C1002.45 310.926 1098.84 403.314 1153.03 361.446C1174.27 339.117 1174.27 279.945 1160.86 257.615C1142.42 228.587 1122.3 181.975 1062.24 176.951C1004.41 172.206 995.468 150.714 982.058 117.778C963.619 73.1196 938.476 54.698 897.128 37.1137C864.162 23.437 796.554 14.7844 789.849 55.5353C775.322 130.338 918.361 164.391 952.165 160.483Z" fill="url(#paint4_linear_2875_39217)"/>
<path d="M835.107 978.014C786.776 998.39 778.115 961.546 794.598 925.54C816.948 874.183 794.598 847.946 794.598 847.946C735.651 761.42 530.871 836.223 557.97 945.078C569.424 1001.46 507.683 1055.89 440.075 1079.05C306.814 1121.76 252.616 1018.77 256.527 962.663C261.276 888.976 127.178 810.266 74.0969 875.299C48.9534 906.281 66.2744 972.432 115.723 1008.44C138.073 1022.95 148.689 1027.98 184.17 1037.47C300.109 1069.56 344.529 1153.86 344.529 1153.86C367.717 1191.82 551.265 1185.96 542.604 1129.57C529.195 1109.2 556.014 1084.92 573.615 1063.42C615.241 1012.9 670.278 1018.76 719.447 989.737C769.734 960.709 770.572 1015.97 758.001 1030.49C745.429 1046.12 735.651 1063.42 730.063 1079.89C717.492 1185.68 963.898 1058.4 947.415 983.876C932.888 943.125 877.013 961.546 835.387 978.014H835.107Z" fill="url(#paint5_linear_2875_39217)"/>
<defs>
<linearGradient id="paint0_linear_2875_39217" x1="603" y1="0" x2="603" y2="1178" gradientUnits="userSpaceOnUse">
<stop stop-color="#2B2B2B"/>
<stop offset="1" stop-color="#2B2B2B" stop-opacity="0"/>
</linearGradient>
<linearGradient id="paint1_linear_2875_39217" x1="603" y1="0" x2="603" y2="1178" gradientUnits="userSpaceOnUse">
<stop stop-color="#2B2B2B"/>
<stop offset="1" stop-color="#2B2B2B" stop-opacity="0"/>
</linearGradient>
<linearGradient id="paint2_linear_2875_39217" x1="603" y1="0" x2="603" y2="1178" gradientUnits="userSpaceOnUse">
<stop stop-color="#2B2B2B"/>
<stop offset="1" stop-color="#2B2B2B" stop-opacity="0"/>
</linearGradient>
<linearGradient id="paint3_linear_2875_39217" x1="603" y1="0" x2="603" y2="1178" gradientUnits="userSpaceOnUse">
<stop stop-color="#2B2B2B"/>
<stop offset="1" stop-color="#2B2B2B" stop-opacity="0"/>
</linearGradient>
<linearGradient id="paint4_linear_2875_39217" x1="603" y1="0" x2="603" y2="1178" gradientUnits="userSpaceOnUse">
<stop stop-color="#2B2B2B"/>
<stop offset="1" stop-color="#2B2B2B" stop-opacity="0"/>
</linearGradient>
<linearGradient id="paint5_linear_2875_39217" x1="603" y1="0" x2="603" y2="1178" gradientUnits="userSpaceOnUse">
<stop stop-color="#2B2B2B"/>
<stop offset="1" stop-color="#2B2B2B" stop-opacity="0"/>
</linearGradient>
</defs>
</svg>
