<svg width="437" height="680" viewBox="0 0 437 680" fill="none" xmlns="http://www.w3.org/2000/svg">
<path d="M31.2245 795.472C62.2348 815.01 92.9658 866.367 108.611 933.355C121.182 989.737 184.879 1019.88 241.033 1008.16C298.863 995.598 335.74 947.869 332.667 891.767C330.712 837.339 276.513 797.705 216.728 800.496C144.37 804.404 37.9293 735.462 34.2975 638.33C30.3862 541.197 117.271 430.667 243.827 400.523C305.568 386.009 339.372 331.581 336.578 278.27C334.623 221.889 285.453 186.162 226.506 198.722C168.676 210.445 125.932 262.919 125.093 320.975C124.255 360.888 101.068 430.667 54.6917 483.979C13.0652 532.545 -43.9267 555.711 -78.5689 567.434C-140.31 588.926 -183.892 635.539 -181.937 692.757C-179.981 741.323 -147.295 775.376 -90.3026 775.376C-38.06 774.538 -3.41777 774.538 31.5038 795.751L31.2245 795.472Z" fill="url(#paint0_linear_2875_105615)"/>
<path d="M-98.1249 507.145C-31.3549 507.145 11.9478 421.735 24.5195 370.378C39.0469 313.997 26.4751 203.467 143.253 176.113C206.112 165.507 314.229 97.4027 295.79 54.698C280.425 9.20211 149.12 56.6518 108.331 104.102C108.331 104.102 82.3496 129.222 78.4384 154.621C58.0442 254.545 -62.6447 284.689 -117.681 375.96C-141.707 416.711 -148.691 458.579 -138.913 483.699C-132.208 498.213 -116.564 506.866 -98.4044 506.866L-98.1249 507.145Z" fill="url(#paint1_linear_2875_105615)"/>
<path d="M949.801 693.595C903.425 757.791 841.684 713.97 836.935 645.028C832.185 571.342 735.522 538.127 662.047 590.601C573.207 653.681 441.902 630.514 401.393 546.78C366.751 435.133 192.702 455.509 141.577 569.946C97.9945 672.94 209.185 768.119 317.302 710.621C416.758 651.448 564.546 647.54 598.351 743.556C615.672 794.914 652.549 809.707 687.191 814.452C758.71 823.104 814.585 716.482 889.177 763.932C916.276 781.516 899.793 842.642 927.731 838.735C934.436 836.781 942.258 830.082 950.919 820.313C978.018 790.169 992.545 752.209 993.383 715.366C993.383 703.643 993.383 693.874 992.545 687.175C987.796 669.591 962.652 672.661 950.08 693.036L949.801 693.595Z" fill="url(#paint2_linear_2875_105615)"/>
<path d="M962.373 403.314C955.668 404.152 949.801 408.059 945.051 413.921C940.302 420.619 935.273 419.782 931.642 423.69C903.704 453.834 770.444 453.834 749.211 401.361C732.729 359.493 757.034 323.766 725.185 283.853C659.533 199.281 566.781 248.963 542.755 219.656C526.272 198.164 508.113 167.182 561.194 81.7728C593.042 31.2528 510.907 -14.2431 429.889 4.17853C375.69 16.7387 334.343 56.6523 335.181 96.2868C336.02 127.269 373.735 147.644 424.022 156.576C466.487 164.391 501.408 194.536 506.995 230.262C509.789 245.893 509.789 263.198 500.291 278.829C443.299 376.798 456.709 446.856 481.014 473.093C520.685 516.914 592.204 531.428 679.089 475.884C686.911 471.139 694.454 466.115 702.277 463.324C776.59 437.087 886.663 479.792 907.895 554.595C933.877 646.703 1006.51 646.703 1020.76 547.896C1031.38 494.585 1016.85 397.453 962.931 403.314H962.373Z" fill="url(#paint3_linear_2875_105615)"/>
<path d="M770.165 160.483C793.353 157.692 841.684 184.766 837.773 207.095C820.452 310.926 916.835 403.314 971.033 361.446C992.266 339.117 992.266 279.945 978.856 257.615C960.417 228.587 940.302 181.975 880.237 176.951C822.407 172.206 813.468 150.714 800.058 117.778C781.619 73.1196 756.476 54.698 715.128 37.1137C682.162 23.437 614.554 14.7844 607.849 55.5353C593.322 130.338 736.361 164.391 770.165 160.483Z" fill="url(#paint4_linear_2875_105615)"/>
<path d="M653.107 978.014C604.776 998.39 596.115 961.546 612.598 925.54C634.948 874.183 612.598 847.946 612.598 847.946C553.651 761.42 348.871 836.223 375.97 945.078C387.424 1001.46 325.683 1055.89 258.075 1079.05C124.814 1121.76 70.6159 1018.77 74.5271 962.663C79.2764 888.976 -54.8223 810.266 -107.903 875.299C-133.047 906.281 -115.726 972.432 -66.2766 1008.44C-43.9268 1022.95 -33.3107 1027.98 2.16962 1037.47C118.109 1069.56 162.529 1153.86 162.529 1153.86C185.717 1191.82 369.265 1185.96 360.604 1129.57C347.195 1109.2 374.014 1084.92 391.615 1063.42C433.241 1012.9 488.278 1018.76 537.447 989.737C587.734 960.709 588.572 1015.97 576.001 1030.49C563.429 1046.12 553.651 1063.42 548.063 1079.89C535.492 1185.68 781.898 1058.4 765.415 983.876C750.888 943.125 695.013 961.546 653.387 978.014H653.107Z" fill="url(#paint5_linear_2875_105615)"/>
<defs>
<linearGradient id="paint0_linear_2875_105615" x1="421" y1="79" x2="421" y2="1178" gradientUnits="userSpaceOnUse">
<stop stop-color="#232323"/>
<stop offset="1" stop-color="#666666"/>
</linearGradient>
<linearGradient id="paint1_linear_2875_105615" x1="421" y1="79" x2="421" y2="1178" gradientUnits="userSpaceOnUse">
<stop stop-color="#232323"/>
<stop offset="1" stop-color="#666666"/>
</linearGradient>
<linearGradient id="paint2_linear_2875_105615" x1="421" y1="79" x2="421" y2="1178" gradientUnits="userSpaceOnUse">
<stop stop-color="#232323"/>
<stop offset="1" stop-color="#666666"/>
</linearGradient>
<linearGradient id="paint3_linear_2875_105615" x1="421" y1="79" x2="421" y2="1178" gradientUnits="userSpaceOnUse">
<stop stop-color="#232323"/>
<stop offset="1" stop-color="#666666"/>
</linearGradient>
<linearGradient id="paint4_linear_2875_105615" x1="421" y1="79" x2="421" y2="1178" gradientUnits="userSpaceOnUse">
<stop stop-color="#232323"/>
<stop offset="1" stop-color="#666666"/>
</linearGradient>
<linearGradient id="paint5_linear_2875_105615" x1="421" y1="79" x2="421" y2="1178" gradientUnits="userSpaceOnUse">
<stop stop-color="#232323"/>
<stop offset="1" stop-color="#666666"/>
</linearGradient>
</defs>
</svg>
