<svg width="1296" height="550" viewBox="0 0 1296 550" fill="none" xmlns="http://www.w3.org/2000/svg">
<path d="M229.137 855.621C262.461 876.637 295.486 931.877 312.298 1003.93C325.808 1064.57 394.258 1097 454.603 1084.39C516.749 1070.88 556.378 1019.54 553.075 959.197C550.974 900.654 492.731 858.023 428.484 861.025C350.726 865.228 236.342 791.074 232.439 686.597C228.236 582.12 321.605 463.232 457.605 430.808C523.954 415.197 560.281 356.654 557.278 299.311C555.177 238.667 502.338 200.238 438.991 213.748C376.845 226.358 330.912 282.799 330.011 345.245C329.11 388.177 304.192 463.232 254.355 520.574C209.622 572.813 148.377 597.731 111.15 610.341C44.801 633.458 -2.03357 683.594 0.067982 745.14C2.16953 797.378 37.2954 834.005 98.5405 834.005C154.682 833.105 191.909 833.105 229.437 855.921L229.137 855.621Z" fill="url(#paint0_linear_2875_104657)"/>
<path d="M90.1344 545.492C161.887 545.492 208.422 453.625 221.931 398.384C237.543 337.739 224.033 218.852 349.525 189.43C417.075 178.022 533.261 104.768 513.446 58.834C496.934 9.89792 355.83 60.9355 311.998 111.973C311.998 111.973 284.077 138.993 279.874 166.313C257.958 273.792 128.262 306.216 69.1189 404.388C43.2999 448.221 35.7944 493.254 46.3021 520.274C53.5074 535.885 70.3197 545.192 89.8341 545.192L90.1344 545.492Z" fill="url(#paint1_linear_2875_104657)"/>
<path d="M1216.26 746.04C1166.43 815.091 1100.08 767.957 1094.97 693.802C1089.87 614.544 985.994 578.817 907.036 635.259C811.566 703.109 670.462 678.19 626.93 588.124C589.702 468.036 402.665 489.952 347.724 613.042C300.89 723.824 420.378 826.199 536.563 764.354C643.442 700.707 802.259 696.504 838.586 799.78C857.199 855.021 896.829 870.932 934.056 876.036C1010.91 885.343 1070.96 770.658 1151.12 821.696C1180.24 840.61 1162.52 906.359 1192.55 902.155C1199.75 900.054 1208.16 892.849 1217.46 882.341C1246.59 849.917 1262.2 809.087 1263.1 769.458C1263.1 756.848 1263.1 746.341 1262.2 739.135C1257.09 720.221 1230.07 723.524 1216.56 745.44L1216.26 746.04Z" fill="url(#paint2_linear_2875_104657)"/>
<path d="M1229.77 433.811C1222.57 434.711 1216.26 438.914 1211.16 445.219C1206.06 452.424 1200.65 451.524 1196.75 455.727C1166.73 488.151 1023.52 488.151 1000.7 431.709C982.992 386.676 1009.11 348.248 974.886 305.316C904.334 214.349 804.661 267.788 778.841 236.265C761.128 213.148 741.614 179.824 798.656 87.956C832.881 33.6159 744.616 -15.3201 657.552 4.49449C599.309 18.0044 554.876 60.9361 555.777 103.567C556.678 136.892 597.208 158.808 651.248 168.415C696.881 176.821 734.409 209.245 740.413 247.674C743.415 264.486 743.415 283.1 733.208 299.912C671.963 405.29 686.373 480.645 712.493 508.866C755.124 556.001 831.981 571.612 925.349 511.868C933.756 506.764 941.862 501.36 950.268 498.358C1030.13 470.137 1148.41 516.071 1171.23 596.531C1199.15 695.603 1277.21 695.603 1292.52 589.325C1303.93 531.983 1288.32 427.506 1230.37 433.811H1229.77Z" fill="url(#paint3_linear_2875_104657)"/>
<path d="M1023.22 172.618C1048.14 169.616 1100.08 198.737 1095.88 222.755C1077.26 334.437 1180.84 433.81 1239.08 388.777C1261.9 364.759 1261.9 301.112 1247.49 277.095C1227.67 245.872 1206.06 195.735 1141.51 190.331C1079.36 185.227 1069.76 162.11 1055.35 126.684C1035.53 78.6485 1008.51 58.834 964.078 39.92C928.652 25.2092 855.999 15.9023 848.793 59.7346C833.182 140.194 986.895 176.821 1023.22 172.618Z" fill="url(#paint4_linear_2875_104657)"/>
<path d="M897.429 1051.97C845.491 1073.88 836.184 1034.25 853.897 995.525C877.915 940.284 853.897 912.063 853.897 912.063C790.55 818.995 570.488 899.454 599.61 1016.54C611.919 1077.18 545.57 1135.73 472.916 1160.65C329.711 1206.58 271.468 1095.8 275.671 1035.45C280.775 956.196 136.669 871.533 79.6266 941.485C52.6067 974.809 71.2203 1045.96 124.359 1084.69C148.377 1100.3 159.786 1105.71 197.914 1115.91C322.505 1150.44 370.241 1241.11 370.241 1241.11C395.159 1281.94 592.404 1275.63 583.097 1214.99C568.687 1193.07 597.508 1166.95 616.422 1143.83C661.155 1089.49 720.298 1095.8 773.137 1064.58C827.177 1033.35 828.078 1092.8 814.568 1108.41C801.058 1125.22 790.55 1143.83 784.546 1161.55C771.036 1275.33 1035.83 1138.43 1018.12 1058.27C1002.51 1014.44 942.462 1034.25 897.729 1051.97H897.429Z" fill="url(#paint5_linear_2875_104657)"/>
<defs>
<linearGradient id="paint0_linear_2875_104657" x1="648" y1="0" x2="648" y2="1267.07" gradientUnits="userSpaceOnUse">
<stop stop-color="#2B2B2B"/>
<stop offset="1" stop-color="#2B2B2B" stop-opacity="0"/>
</linearGradient>
<linearGradient id="paint1_linear_2875_104657" x1="648" y1="0" x2="648" y2="1267.07" gradientUnits="userSpaceOnUse">
<stop stop-color="#2B2B2B"/>
<stop offset="1" stop-color="#2B2B2B" stop-opacity="0"/>
</linearGradient>
<linearGradient id="paint2_linear_2875_104657" x1="648" y1="0" x2="648" y2="1267.07" gradientUnits="userSpaceOnUse">
<stop stop-color="#2B2B2B"/>
<stop offset="1" stop-color="#2B2B2B" stop-opacity="0"/>
</linearGradient>
<linearGradient id="paint3_linear_2875_104657" x1="648" y1="0" x2="648" y2="1267.07" gradientUnits="userSpaceOnUse">
<stop stop-color="#2B2B2B"/>
<stop offset="1" stop-color="#2B2B2B" stop-opacity="0"/>
</linearGradient>
<linearGradient id="paint4_linear_2875_104657" x1="648" y1="0" x2="648" y2="1267.07" gradientUnits="userSpaceOnUse">
<stop stop-color="#2B2B2B"/>
<stop offset="1" stop-color="#2B2B2B" stop-opacity="0"/>
</linearGradient>
<linearGradient id="paint5_linear_2875_104657" x1="648" y1="0" x2="648" y2="1267.07" gradientUnits="userSpaceOnUse">
<stop stop-color="#2B2B2B"/>
<stop offset="1" stop-color="#2B2B2B" stop-opacity="0"/>
</linearGradient>
</defs>
</svg>
