<svg width="80" height="80" viewBox="0 0 80 80" fill="none" xmlns="http://www.w3.org/2000/svg">
<path d="M77.2414 49.6553H74.4828V52.4139H77.2414V49.6553Z" fill="#BCBCBC"/>
<path d="M77.2414 46.8967H74.4828V49.6553H77.2414V46.8967Z" fill="#BCBCBC"/>
<path d="M77.2414 44.1381H74.4828V46.8967H77.2414V44.1381Z" fill="#BCBCBC"/>
<path d="M77.2414 41.3793H74.4828V44.138H77.2414V41.3793Z" fill="#BCBCBC"/>
<path d="M77.2414 35.8621H74.4828V38.6207H77.2414V35.8621Z" fill="#738500"/>
<path d="M77.2414 33.1035H74.4828V35.8621H77.2414V33.1035Z" fill="#738500"/>
<path d="M77.2414 30.3449H74.4828V33.1035H77.2414V30.3449Z" fill="#738500"/>
<path d="M77.2414 27.5863H74.4828V30.3449H77.2414V27.5863Z" fill="#738500"/>
<path d="M74.4828 55.1725H71.7242V57.9311H74.4828V55.1725Z" fill="#BCBCBC"/>
<path d="M74.4828 52.4139H71.7242V55.1725H74.4828V52.4139Z" fill="#BCBCBC"/>
<path d="M74.4828 49.6553H71.7242V52.4139H74.4828V49.6553Z" fill="#BCBCBC"/>
<path d="M74.4828 46.8967H71.7242V49.6553H74.4828V46.8967Z" fill="#BCBCBC"/>
<path d="M74.4828 33.1035H71.7242V35.8621H74.4828V33.1035Z" fill="#738500"/>
<path d="M74.4828 30.3449H71.7242V33.1035H74.4828V30.3449Z" fill="#DBFD01"/>
<path d="M74.4828 27.5863H71.7242V30.3449H74.4828V27.5863Z" fill="#DBFD01"/>
<path d="M74.4828 24.8276H71.7242V27.5863H74.4828V24.8276Z" fill="#DBFD01"/>
<path d="M74.4828 22.069H71.7242V24.8277H74.4828V22.069Z" fill="#DBFD01"/>
<path d="M71.7241 60.6898H68.9655V63.4484H71.7241V60.6898Z" fill="#738500"/>
<path d="M71.7241 57.9311H68.9655V60.6897H71.7241V57.9311Z" fill="#738500"/>
<path d="M71.7241 52.4139H68.9655V55.1725H71.7241V52.4139Z" fill="#BCBCBC"/>
<path d="M71.7241 30.3449H68.9655V33.1035H71.7241V30.3449Z" fill="#DBFD01"/>
<path d="M71.7241 27.5863H68.9655V30.3449H71.7241V27.5863Z" fill="#DBFD01"/>
<path d="M71.7241 24.8276H68.9655V27.5863H71.7241V24.8276Z" fill="#DBFD01"/>
<path d="M71.7241 22.069H68.9655V24.8277H71.7241V22.069Z" fill="#DBFD01"/>
<path d="M68.9655 63.4484H66.2069V66.207H68.9655V63.4484Z" fill="#738500"/>
<path d="M68.9655 60.6898H66.2069V63.4484H68.9655V60.6898Z" fill="#738500"/>
<path d="M68.9655 57.9311H66.2069V60.6897H68.9655V57.9311Z" fill="#DBFD01"/>
<path d="M68.9655 55.1725H66.2069V57.9311H68.9655V55.1725Z" fill="#DBFD01"/>
<path d="M66.2069 66.207H63.4483V68.9656H66.2069V66.207Z" fill="#738500"/>
<path d="M66.2069 63.4484H63.4483V66.207H66.2069V63.4484Z" fill="#738500"/>
<path d="M66.2069 60.6898H63.4483V63.4484H66.2069V60.6898Z" fill="#DBFD01"/>
<path d="M66.2069 57.9311H63.4483V60.6897H66.2069V57.9311Z" fill="#DBFD01"/>
<path d="M66.2069 55.1725H63.4483V57.9311H66.2069V55.1725Z" fill="#DBFD01"/>
<path d="M63.4483 68.9656H60.6897V71.7242H63.4483V68.9656Z" fill="#738500"/>
<path d="M63.4483 66.207H60.6897V68.9656H63.4483V66.207Z" fill="#738500"/>
<path d="M63.4483 63.4484H60.6897V66.207H63.4483V63.4484Z" fill="#DBFD01"/>
<path d="M63.4483 60.6898H60.6897V63.4484H63.4483V60.6898Z" fill="#DBFD01"/>
<path d="M63.4483 57.9311H60.6897V60.6897H63.4483V57.9311Z" fill="#DBFD01"/>
<path d="M63.4483 55.1725H60.6897V57.9311H63.4483V55.1725Z" fill="#DBFD01"/>
<path d="M60.6896 68.9656H57.931V71.7242H60.6896V68.9656Z" fill="#738500"/>
<path d="M60.6896 66.207H57.931V68.9656H60.6896V66.207Z" fill="#DBFD01"/>
<path d="M60.6896 63.4484H57.931V66.207H60.6896V63.4484Z" fill="#DBFD01"/>
<path d="M60.6896 60.6898H57.931V63.4484H60.6896V60.6898Z" fill="#DBFD01"/>
<path d="M60.6896 57.9311H57.931V60.6897H60.6896V57.9311Z" fill="#DBFD01"/>
<path d="M60.6896 55.1725H57.931V57.9311H60.6896V55.1725Z" fill="#DBFD01"/>
<path d="M57.931 71.7242H55.1724V74.4828H57.931V71.7242Z" fill="#BCBCBC"/>
<path d="M57.931 66.207H55.1724V68.9656H57.931V66.207Z" fill="#DBFD01"/>
<path d="M57.931 63.4484H55.1724V66.207H57.931V63.4484Z" fill="#DBFD01"/>
<path d="M57.931 60.6898H55.1724V63.4484H57.931V60.6898Z" fill="#DBFD01"/>
<path d="M57.931 57.9311H55.1724V60.6897H57.931V57.9311Z" fill="#DBFD01"/>
<path d="M57.931 55.1725H55.1724V57.9311H57.931V55.1725Z" fill="#DBFD01"/>
<path d="M55.1724 71.7242H52.4138V74.4828H55.1724V71.7242Z" fill="#BCBCBC"/>
<path d="M55.1724 63.4484H52.4138V66.207H55.1724V63.4484Z" fill="#DBFD01"/>
<path d="M55.1724 60.6898H52.4138V63.4484H55.1724V60.6898Z" fill="#DBFD01"/>
<path d="M55.1724 57.9311H52.4138V60.6897H55.1724V57.9311Z" fill="#DBFD01"/>
<path d="M52.4138 74.4828H49.6552V77.2414H52.4138V74.4828Z" fill="#BCBCBC"/>
<path d="M52.4138 71.7242H49.6552V74.4828H52.4138V71.7242Z" fill="#BCBCBC"/>
<path d="M49.6552 74.4828H46.8965V77.2414H49.6552V74.4828Z" fill="#BCBCBC"/>
<path d="M49.6552 71.7242H46.8965V74.4828H49.6552V71.7242Z" fill="#BCBCBC"/>
<path d="M49.6552 33.1035H46.8965V35.8621H49.6552V33.1035Z" fill="#738500"/>
<path d="M49.6552 30.3449H46.8965V33.1035H49.6552V30.3449Z" fill="#DBFD01"/>
<path d="M49.6552 27.5863H46.8965V30.3449H49.6552V27.5863Z" fill="#DBFD01"/>
<path d="M49.6552 2.75867H46.8965V5.51729H49.6552V2.75867Z" fill="#DBFD01"/>
<path d="M46.8966 74.4828H44.1379V77.2414H46.8966V74.4828Z" fill="#BCBCBC"/>
<path d="M46.8966 71.7242H44.1379V74.4828H46.8966V71.7242Z" fill="#BCBCBC"/>
<path d="M46.8966 35.8621H44.1379V38.6207H46.8966V35.8621Z" fill="#738500"/>
<path d="M46.8966 33.1035H44.1379V35.8621H46.8966V33.1035Z" fill="#DBFD01"/>
<path d="M46.8966 30.3449H44.1379V33.1035H46.8966V30.3449Z" fill="#DBFD01"/>
<path d="M46.8966 27.5863H44.1379V30.3449H46.8966V27.5863Z" fill="#DBFD01"/>
<path d="M46.8966 24.8276H44.1379V27.5863H46.8966V24.8276Z" fill="#DBFD01"/>
<path d="M46.8966 2.75867H44.1379V5.51729H46.8966V2.75867Z" fill="#DBFD01"/>
<path d="M44.138 74.4828H41.3793V77.2414H44.138V74.4828Z" fill="#BCBCBC"/>
<path d="M44.138 71.7242H41.3793V74.4828H44.138V71.7242Z" fill="#BCBCBC"/>
<path d="M44.138 35.8621H41.3793V38.6207H44.138V35.8621Z" fill="#738500"/>
<path d="M44.138 33.1035H41.3793V35.8621H44.138V33.1035Z" fill="#DBFD01"/>
<path d="M44.138 30.3449H41.3793V33.1035H44.138V30.3449Z" fill="#DBFD01"/>
<path d="M44.138 27.5863H41.3793V30.3449H44.138V27.5863Z" fill="#DBFD01"/>
<path d="M44.138 24.8276H41.3793V27.5863H44.138V24.8276Z" fill="#DBFD01"/>
<path d="M44.138 22.069H41.3793V24.8277H44.138V22.069Z" fill="#DBFD01"/>
<path d="M44.138 2.75867H41.3793V5.51729H44.138V2.75867Z" fill="#DBFD01"/>
<path d="M41.3793 74.4828H38.6207V77.2414H41.3793V74.4828Z" fill="#BCBCBC"/>
<path d="M41.3793 71.7242H38.6207V74.4828H41.3793V71.7242Z" fill="#BCBCBC"/>
<path d="M41.3793 35.8621H38.6207V38.6207H41.3793V35.8621Z" fill="#738500"/>
<path d="M41.3793 33.1035H38.6207V35.8621H41.3793V33.1035Z" fill="#DBFD01"/>
<path d="M41.3793 30.3449H38.6207V33.1035H41.3793V30.3449Z" fill="#DBFD01"/>
<path d="M41.3793 27.5863H38.6207V30.3449H41.3793V27.5863Z" fill="#DBFD01"/>
<path d="M41.3793 24.8276H38.6207V27.5863H41.3793V24.8276Z" fill="#DBFD01"/>
<path d="M41.3793 22.069H38.6207V24.8277H41.3793V22.069Z" fill="#DBFD01"/>
<path d="M41.3793 2.75867H38.6207V5.51729H41.3793V2.75867Z" fill="#DBFD01"/>
<path d="M38.6207 74.4828H35.8621V77.2414H38.6207V74.4828Z" fill="#BCBCBC"/>
<path d="M38.6207 71.7242H35.8621V74.4828H38.6207V71.7242Z" fill="#BCBCBC"/>
<path d="M38.6207 35.8621H35.8621V38.6207H38.6207V35.8621Z" fill="#738500"/>
<path d="M38.6207 33.1035H35.8621V35.8621H38.6207V33.1035Z" fill="#DBFD01"/>
<path d="M38.6207 30.3449H35.8621V33.1035H38.6207V30.3449Z" fill="#DBFD01"/>
<path d="M38.6207 27.5863H35.8621V30.3449H38.6207V27.5863Z" fill="#DBFD01"/>
<path d="M38.6207 24.8276H35.8621V27.5863H38.6207V24.8276Z" fill="#DBFD01"/>
<path d="M38.6207 22.069H35.8621V24.8277H38.6207V22.069Z" fill="#DBFD01"/>
<path d="M38.6207 2.75867H35.8621V5.51729H38.6207V2.75867Z" fill="#DBFD01"/>
<path d="M35.8621 74.4828H33.1035V77.2414H35.8621V74.4828Z" fill="#BCBCBC"/>
<path d="M35.8621 71.7242H33.1035V74.4828H35.8621V71.7242Z" fill="#BCBCBC"/>
<path d="M35.8621 35.8621H33.1035V38.6207H35.8621V35.8621Z" fill="#738500"/>
<path d="M35.8621 33.1035H33.1035V35.8621H35.8621V33.1035Z" fill="#DBFD01"/>
<path d="M35.8621 30.3449H33.1035V33.1035H35.8621V30.3449Z" fill="#DBFD01"/>
<path d="M35.8621 27.5863H33.1035V30.3449H35.8621V27.5863Z" fill="#DBFD01"/>
<path d="M35.8621 24.8276H33.1035V27.5863H35.8621V24.8276Z" fill="#DBFD01"/>
<path d="M35.8621 2.75867H33.1035V5.51729H35.8621V2.75867Z" fill="#DBFD01"/>
<path d="M33.1035 74.4828H30.3448V77.2414H33.1035V74.4828Z" fill="#BCBCBC"/>
<path d="M33.1035 71.7242H30.3448V74.4828H33.1035V71.7242Z" fill="#BCBCBC"/>
<path d="M33.1035 33.1035H30.3448V35.8621H33.1035V33.1035Z" fill="#738500"/>
<path d="M33.1035 30.3449H30.3448V33.1035H33.1035V30.3449Z" fill="#DBFD01"/>
<path d="M33.1035 27.5863H30.3448V30.3449H33.1035V27.5863Z" fill="#DBFD01"/>
<path d="M33.1035 2.75867H30.3448V5.51729H33.1035V2.75867Z" fill="#DBFD01"/>
<path d="M30.3448 74.4828H27.5862V77.2414H30.3448V74.4828Z" fill="#BCBCBC"/>
<path d="M30.3448 71.7242H27.5862V74.4828H30.3448V71.7242Z" fill="#BCBCBC"/>
<path d="M27.5863 71.7242H24.8276V74.4828H27.5863V71.7242Z" fill="#BCBCBC"/>
<path d="M27.5863 63.4484H24.8276V66.207H27.5863V63.4484Z" fill="#DBFD01"/>
<path d="M27.5863 60.6898H24.8276V63.4484H27.5863V60.6898Z" fill="#DBFD01"/>
<path d="M27.5863 57.9311H24.8276V60.6897H27.5863V57.9311Z" fill="#DBFD01"/>
<path d="M24.8276 71.7242H22.069V74.4828H24.8276V71.7242Z" fill="#BCBCBC"/>
<path d="M24.8276 66.207H22.069V68.9656H24.8276V66.207Z" fill="#DBFD01"/>
<path d="M24.8276 63.4484H22.069V66.207H24.8276V63.4484Z" fill="#DBFD01"/>
<path d="M24.8276 60.6898H22.069V63.4484H24.8276V60.6898Z" fill="#DBFD01"/>
<path d="M24.8276 57.9311H22.069V60.6897H24.8276V57.9311Z" fill="#DBFD01"/>
<path d="M24.8276 55.1725H22.069V57.9311H24.8276V55.1725Z" fill="#DBFD01"/>
<path d="M22.069 68.9656H19.3104V71.7242H22.069V68.9656Z" fill="#738500"/>
<path d="M22.069 66.207H19.3104V68.9656H22.069V66.207Z" fill="#DBFD01"/>
<path d="M22.069 63.4484H19.3104V66.207H22.069V63.4484Z" fill="#DBFD01"/>
<path d="M22.069 60.6898H19.3104V63.4484H22.069V60.6898Z" fill="#DBFD01"/>
<path d="M22.069 57.9311H19.3104V60.6897H22.069V57.9311Z" fill="#DBFD01"/>
<path d="M22.069 55.1725H19.3104V57.9311H22.069V55.1725Z" fill="#DBFD01"/>
<path d="M19.3104 68.9656H16.5518V71.7242H19.3104V68.9656Z" fill="#738500"/>
<path d="M19.3104 66.207H16.5518V68.9656H19.3104V66.207Z" fill="#738500"/>
<path d="M19.3104 63.4484H16.5518V66.207H19.3104V63.4484Z" fill="#DBFD01"/>
<path d="M19.3104 60.6898H16.5518V63.4484H19.3104V60.6898Z" fill="#DBFD01"/>
<path d="M19.3104 57.9311H16.5518V60.6897H19.3104V57.9311Z" fill="#DBFD01"/>
<path d="M19.3104 55.1725H16.5518V57.9311H19.3104V55.1725Z" fill="#DBFD01"/>
<path d="M16.5517 66.207H13.7931V68.9656H16.5517V66.207Z" fill="#738500"/>
<path d="M16.5517 63.4484H13.7931V66.207H16.5517V63.4484Z" fill="#738500"/>
<path d="M16.5517 60.6898H13.7931V63.4484H16.5517V60.6898Z" fill="#DBFD01"/>
<path d="M16.5517 57.9311H13.7931V60.6897H16.5517V57.9311Z" fill="#DBFD01"/>
<path d="M16.5517 55.1725H13.7931V57.9311H16.5517V55.1725Z" fill="#DBFD01"/>
<path d="M13.7931 63.4484H11.0345V66.207H13.7931V63.4484Z" fill="#738500"/>
<path d="M13.7931 60.6898H11.0345V63.4484H13.7931V60.6898Z" fill="#738500"/>
<path d="M13.7931 57.9311H11.0345V60.6897H13.7931V57.9311Z" fill="#DBFD01"/>
<path d="M13.7931 55.1725H11.0345V57.9311H13.7931V55.1725Z" fill="#DBFD01"/>
<path d="M11.0345 60.6898H8.27588V63.4484H11.0345V60.6898Z" fill="#738500"/>
<path d="M11.0345 57.9311H8.27588V60.6897H11.0345V57.9311Z" fill="#738500"/>
<path d="M11.0345 52.4139H8.27588V55.1725H11.0345V52.4139Z" fill="#BCBCBC"/>
<path d="M11.0345 30.3449H8.27588V33.1035H11.0345V30.3449Z" fill="#DBFD01"/>
<path d="M11.0345 27.5863H8.27588V30.3449H11.0345V27.5863Z" fill="#DBFD01"/>
<path d="M11.0345 24.8276H8.27588V27.5863H11.0345V24.8276Z" fill="#DBFD01"/>
<path d="M11.0345 22.069H8.27588V24.8277H11.0345V22.069Z" fill="#DBFD01"/>
<path d="M8.27589 55.1725H5.51727V57.9311H8.27589V55.1725Z" fill="#BCBCBC"/>
<path d="M8.27589 52.4139H5.51727V55.1725H8.27589V52.4139Z" fill="#BCBCBC"/>
<path d="M8.27589 49.6553H5.51727V52.4139H8.27589V49.6553Z" fill="#BCBCBC"/>
<path d="M8.27589 46.8967H5.51727V49.6553H8.27589V46.8967Z" fill="#BCBCBC"/>
<path d="M8.27589 33.1035H5.51727V35.8621H8.27589V33.1035Z" fill="#738500"/>
<path d="M8.27589 30.3449H5.51727V33.1035H8.27589V30.3449Z" fill="#DBFD01"/>
<path d="M8.27589 27.5863H5.51727V30.3449H8.27589V27.5863Z" fill="#DBFD01"/>
<path d="M8.27589 24.8276H5.51727V27.5863H8.27589V24.8276Z" fill="#DBFD01"/>
<path d="M8.27589 22.069H5.51727V24.8277H8.27589V22.069Z" fill="#DBFD01"/>
<path d="M5.51729 49.6553H2.75867V52.4139H5.51729V49.6553Z" fill="#BCBCBC"/>
<path d="M5.51729 46.8967H2.75867V49.6553H5.51729V46.8967Z" fill="#BCBCBC"/>
<path d="M5.51729 44.1381H2.75867V46.8967H5.51729V44.1381Z" fill="#BCBCBC"/>
<path d="M5.51729 41.3793H2.75867V44.138H5.51729V41.3793Z" fill="#BCBCBC"/>
<path d="M5.51729 35.8621H2.75867V38.6207H5.51729V35.8621Z" fill="#738500"/>
<path d="M5.51729 33.1035H2.75867V35.8621H5.51729V33.1035Z" fill="#738500"/>
<path d="M5.51729 30.3449H2.75867V33.1035H5.51729V30.3449Z" fill="#738500"/>
<path d="M5.51729 27.5863H2.75867V30.3449H5.51729V27.5863Z" fill="#738500"/>
<path d="M80 49.6553H77.2414V52.4139H80V49.6553Z" fill="black"/>
<path d="M80 46.8967H77.2414V49.6553H80V46.8967Z" fill="black"/>
<path d="M80 44.1381H77.2414V46.8967H80V44.1381Z" fill="black"/>
<path d="M80 41.3793H77.2414V44.138H80V41.3793Z" fill="black"/>
<path d="M80 38.6207H77.2414V41.3794H80V38.6207Z" fill="black"/>
<path d="M80 35.8621H77.2414V38.6207H80V35.8621Z" fill="black"/>
<path d="M80 33.1035H77.2414V35.8621H80V33.1035Z" fill="black"/>
<path d="M80 30.3449H77.2414V33.1035H80V30.3449Z" fill="black"/>
<path d="M80 27.5863H77.2414V30.3449H80V27.5863Z" fill="black"/>
<path d="M77.2414 55.1725H74.4828V57.9311H77.2414V55.1725Z" fill="black"/>
<path d="M77.2414 52.4139H74.4828V55.1725H77.2414V52.4139Z" fill="black"/>
<path d="M77.2414 38.6207H74.4828V41.3794H77.2414V38.6207Z" fill="black"/>
<path d="M77.2414 24.8276H74.4828V27.5863H77.2414V24.8276Z" fill="black"/>
<path d="M77.2414 22.069H74.4828V24.8277H77.2414V22.069Z" fill="black"/>
<path d="M74.4828 60.6898H71.7242V63.4484H74.4828V60.6898Z" fill="black"/>
<path d="M74.4828 57.9311H71.7242V60.6897H74.4828V57.9311Z" fill="black"/>
<path d="M74.4828 44.1381H71.7242V46.8967H74.4828V44.1381Z" fill="black"/>
<path d="M74.4828 41.3793H71.7242V44.138H74.4828V41.3793Z" fill="black"/>
<path d="M74.4828 38.6207H71.7242V41.3794H74.4828V38.6207Z" fill="black"/>
<path d="M74.4828 35.8621H71.7242V38.6207H74.4828V35.8621Z" fill="black"/>
<path d="M74.4828 19.3104H71.7242V22.069H74.4828V19.3104Z" fill="black"/>
<path d="M74.4828 16.5518H71.7242V19.3104H74.4828V16.5518Z" fill="black"/>
<path d="M71.7241 63.4484H68.9655V66.207H71.7241V63.4484Z" fill="black"/>
<path d="M71.7241 55.1725H68.9655V57.9311H71.7241V55.1725Z" fill="black"/>
<path d="M71.7241 49.6553H68.9655V52.4139H71.7241V49.6553Z" fill="black"/>
<path d="M71.7241 46.8967H68.9655V49.6553H71.7241V46.8967Z" fill="black"/>
<path d="M71.7241 44.138V46.8966H68.9655V49.6553V52.4139H66.2069H63.4483H60.6896H57.931H55.1724V49.6553H52.4138V46.8966V44.138H49.6552V41.3794V38.6208V35.8622H52.4138V33.1035V30.3449H55.1724H57.931H60.6896H63.4483H66.2069V33.1035H68.9655V35.8622H71.7241V38.6208V41.3794V44.138Z" fill="white"/>
<path d="M71.7241 33.1035H68.9655V35.8621H71.7241V33.1035Z" fill="black"/>
<path d="M71.7241 19.3104H68.9655V22.069H71.7241V19.3104Z" fill="black"/>
<path d="M71.7242 16.5518V19.3104H68.9655V22.069H66.2069V24.8276V27.5862H63.4483H60.6897H57.9311H55.1724H52.4138H49.6552V24.8276H46.8966V22.069H44.138V19.3104H41.3793V16.5518V13.7931V11.0345V8.27589H44.138H46.8966H49.6552V5.51727H52.4138H55.1724H57.9311H60.6897V8.27589H63.4483V11.0345H66.2069V13.7931H68.9655V16.5518H71.7242Z" fill="white"/>
<path d="M71.7241 13.7932H68.9655V16.5518H71.7241V13.7932Z" fill="black"/>
<path d="M68.9655 66.207H66.2069V68.9656H68.9655V66.207Z" fill="black"/>
<path d="M68.9655 52.4139H66.2069V55.1725H68.9655V52.4139Z" fill="black"/>
<path d="M68.9655 30.3449H66.2069V33.1035H68.9655V30.3449Z" fill="black"/>
<path d="M68.9655 27.5863H66.2069V30.3449H68.9655V27.5863Z" fill="black"/>
<path d="M68.9655 24.8276H66.2069V27.5863H68.9655V24.8276Z" fill="black"/>
<path d="M68.9655 22.069H66.2069V24.8277H68.9655V22.069Z" fill="black"/>
<path d="M68.9655 11.0346H66.2069V13.7932H68.9655V11.0346Z" fill="black"/>
<path d="M66.2069 68.9656H63.4483V71.7242H66.2069V68.9656Z" fill="black"/>
<path d="M66.2069 52.4139H63.4483V55.1725H66.2069V52.4139Z" fill="black"/>
<path d="M66.2069 27.5863H63.4483V30.3449H66.2069V27.5863Z" fill="black"/>
<path d="M66.2069 8.27588H63.4483V11.0345H66.2069V8.27588Z" fill="black"/>
<path d="M63.4483 71.7242H60.6897V74.4828H63.4483V71.7242Z" fill="black"/>
<path d="M63.4483 52.4139H60.6897V55.1725H63.4483V52.4139Z" fill="black"/>
<path d="M63.4483 27.5863H60.6897V30.3449H63.4483V27.5863Z" fill="black"/>
<path d="M63.4483 5.51727H60.6897V8.27589H63.4483V5.51727Z" fill="black"/>
<path d="M60.6896 74.4828H57.931V77.2414H60.6896V74.4828Z" fill="black"/>
<path d="M60.6896 71.7242H57.931V74.4828H60.6896V71.7242Z" fill="black"/>
<path d="M60.6896 52.4139H57.931V55.1725H60.6896V52.4139Z" fill="black"/>
<path d="M60.6896 27.5863H57.931V30.3449H60.6896V27.5863Z" fill="black"/>
<path d="M60.6896 2.75867H57.931V5.51729H60.6896V2.75867Z" fill="black"/>
<path d="M57.931 74.4828H55.1724V77.2414H57.931V74.4828Z" fill="black"/>
<path d="M57.931 68.9656H55.1724V71.7242H57.931V68.9656Z" fill="black"/>
<path d="M57.931 52.4139H55.1724V55.1725H57.931V52.4139Z" fill="black"/>
<path d="M57.931 27.5863H55.1724V30.3449H57.931V27.5863Z" fill="black"/>
<path d="M57.931 2.75867H55.1724V5.51729H57.931V2.75867Z" fill="black"/>
<path d="M55.1724 74.4828H52.4138V77.2414H55.1724V74.4828Z" fill="black"/>
<path d="M55.1724 66.207H52.4138V68.9656H55.1724V66.207Z" fill="black"/>
<path d="M55.1724 55.1725H52.4138V57.9311H55.1724V55.1725Z" fill="black"/>
<path d="M55.1725 52.4138V55.1724H52.4138V57.9311H49.6552V60.6897V63.4483H46.8966H44.138H41.3794H38.6207H35.8621H33.1035H30.3449V60.6897V57.9311H27.5863V55.1724H24.8276V52.4138H27.5863V49.6552H30.3449V46.8966V44.138H33.1035V41.3793H35.8621H38.6207H41.3794H44.138H46.8966V44.138H49.6552V46.8966V49.6552H52.4138V52.4138H55.1725Z" fill="white"/>
<path d="M55.1724 49.6553H52.4138V52.4139H55.1724V49.6553Z" fill="black"/>
<path d="M55.1724 27.5863H52.4138V30.3449H55.1724V27.5863Z" fill="black"/>
<path d="M55.1724 2.75867H52.4138V5.51729H55.1724V2.75867Z" fill="black"/>
<path d="M52.4138 77.2414H49.6552V80H52.4138V77.2414Z" fill="black"/>
<path d="M52.4138 63.4484H49.6552V66.207H52.4138V63.4484Z" fill="black"/>
<path d="M52.4138 60.6898H49.6552V63.4484H52.4138V60.6898Z" fill="black"/>
<path d="M52.4138 57.9311H49.6552V60.6897H52.4138V57.9311Z" fill="black"/>
<path d="M52.4138 46.8967H49.6552V49.6553H52.4138V46.8967Z" fill="black"/>
<path d="M52.4138 44.1381H49.6552V46.8967H52.4138V44.1381Z" fill="black"/>
<path d="M52.4138 33.1035H49.6552V35.8621H52.4138V33.1035Z" fill="black"/>
<path d="M52.4138 30.3449H49.6552V33.1035H52.4138V30.3449Z" fill="black"/>
<path d="M52.4138 27.5863H49.6552V30.3449H52.4138V27.5863Z" fill="black"/>
<path d="M52.4138 2.75867H49.6552V5.51729H52.4138V2.75867Z" fill="black"/>
<path d="M52.4138 6.10352e-05H49.6552V2.75868H52.4138V6.10352e-05Z" fill="black"/>
<path d="M49.6552 77.2414H46.8965V80H49.6552V77.2414Z" fill="black"/>
<path d="M49.6552 63.4484H46.8965V66.207H49.6552V63.4484Z" fill="black"/>
<path d="M49.6552 41.3793H46.8965V44.138H49.6552V41.3793Z" fill="black"/>
<path d="M49.6552 38.6207H46.8965V41.3794H49.6552V38.6207Z" fill="black"/>
<path d="M49.6552 35.8621H46.8965V38.6207H49.6552V35.8621Z" fill="black"/>
<path d="M49.6552 24.8276H46.8965V27.5863H49.6552V24.8276Z" fill="black"/>
<path d="M49.6552 5.51727H46.8965V8.27589H49.6552V5.51727Z" fill="black"/>
<path d="M49.6552 6.10352e-05H46.8965V2.75868H49.6552V6.10352e-05Z" fill="black"/>
<path d="M46.8966 77.2414H44.1379V80H46.8966V77.2414Z" fill="black"/>
<path d="M46.8966 63.4484H44.1379V66.207H46.8966V63.4484Z" fill="black"/>
<path d="M46.8966 38.6207H44.1379V41.3794H46.8966V38.6207Z" fill="black"/>
<path d="M46.8966 22.069H44.1379V24.8277H46.8966V22.069Z" fill="black"/>
<path d="M46.8966 5.51727H44.1379V8.27589H46.8966V5.51727Z" fill="black"/>
<path d="M46.8966 6.10352e-05H44.1379V2.75868H46.8966V6.10352e-05Z" fill="black"/>
<path d="M44.138 77.2414H41.3793V80H44.138V77.2414Z" fill="black"/>
<path d="M44.138 63.4484H41.3793V66.207H44.138V63.4484Z" fill="black"/>
<path d="M44.138 38.6207H41.3793V41.3794H44.138V38.6207Z" fill="black"/>
<path d="M44.138 19.3104H41.3793V22.069H44.138V19.3104Z" fill="black"/>
<path d="M44.138 5.51727H41.3793V8.27589H44.138V5.51727Z" fill="black"/>
<path d="M44.138 6.10352e-05H41.3793V2.75868H44.138V6.10352e-05Z" fill="black"/>
<path d="M41.3793 77.2414H38.6207V80H41.3793V77.2414Z" fill="black"/>
<path d="M41.3793 63.4484H38.6207V66.207H41.3793V63.4484Z" fill="black"/>
<path d="M41.3793 38.6207H38.6207V41.3794H41.3793V38.6207Z" fill="black"/>
<path d="M41.3793 19.3104H38.6207V22.069H41.3793V19.3104Z" fill="black"/>
<path d="M41.3793 16.5518H38.6207V19.3104H41.3793V16.5518Z" fill="black"/>
<path d="M41.3793 13.7932H38.6207V16.5518H41.3793V13.7932Z" fill="black"/>
<path d="M41.3793 11.0346H38.6207V13.7932H41.3793V11.0346Z" fill="black"/>
<path d="M41.3793 8.27588H38.6207V11.0345H41.3793V8.27588Z" fill="black"/>
<path d="M41.3793 5.51727H38.6207V8.27589H41.3793V5.51727Z" fill="black"/>
<path d="M41.3793 6.10352e-05H38.6207V2.75868H41.3793V6.10352e-05Z" fill="black"/>
<path d="M38.6207 77.2414H35.8621V80H38.6207V77.2414Z" fill="black"/>
<path d="M38.6207 63.4484H35.8621V66.207H38.6207V63.4484Z" fill="black"/>
<path d="M38.6207 38.6207H35.8621V41.3794H38.6207V38.6207Z" fill="black"/>
<path d="M38.6207 19.3104H35.8621V22.069H38.6207V19.3104Z" fill="black"/>
<path d="M38.6207 16.5518V19.3104H35.8621V22.069H33.1035V24.8276H30.3448V27.5862H27.5862H24.8276H22.069H19.3104H16.5517H13.7931V24.8276V22.069H11.0345V19.3104H8.27588V16.5518H11.0345V13.7931H13.7931V11.0345H16.5517V8.27589H19.3104V5.51727H22.069H24.8276H27.5862H30.3448V8.27589H33.1035H35.8621H38.6207V11.0345V13.7931V16.5518Z" fill="white"/>
<path d="M38.6207 5.51727H35.8621V8.27589H38.6207V5.51727Z" fill="black"/>
<path d="M38.6207 6.10352e-05H35.8621V2.75868H38.6207V6.10352e-05Z" fill="black"/>
<path d="M35.8621 77.2414H33.1035V80H35.8621V77.2414Z" fill="black"/>
<path d="M35.8621 63.4484H33.1035V66.207H35.8621V63.4484Z" fill="black"/>
<path d="M35.8621 38.6207H33.1035V41.3794H35.8621V38.6207Z" fill="black"/>
<path d="M35.8621 22.069H33.1035V24.8277H35.8621V22.069Z" fill="black"/>
<path d="M35.8621 5.51727H33.1035V8.27589H35.8621V5.51727Z" fill="black"/>
<path d="M35.8621 6.10352e-05H33.1035V2.75868H35.8621V6.10352e-05Z" fill="black"/>
<path d="M33.1035 77.2414H30.3448V80H33.1035V77.2414Z" fill="black"/>
<path d="M33.1035 63.4484H30.3448V66.207H33.1035V63.4484Z" fill="black"/>
<path d="M33.1035 41.3793H30.3448V44.138H33.1035V41.3793Z" fill="black"/>
<path d="M33.1035 38.6207H30.3448V41.3794H33.1035V38.6207Z" fill="black"/>
<path d="M33.1035 35.8621H30.3448V38.6207H33.1035V35.8621Z" fill="black"/>
<path d="M33.1035 24.8276H30.3448V27.5863H33.1035V24.8276Z" fill="black"/>
<path d="M33.1035 5.51727H30.3448V8.27589H33.1035V5.51727Z" fill="black"/>
<path d="M33.1035 6.10352e-05H30.3448V2.75868H33.1035V6.10352e-05Z" fill="black"/>
<path d="M30.3448 77.2414H27.5862V80H30.3448V77.2414Z" fill="black"/>
<path d="M30.3448 63.4484H27.5862V66.207H30.3448V63.4484Z" fill="black"/>
<path d="M30.3448 60.6898H27.5862V63.4484H30.3448V60.6898Z" fill="black"/>
<path d="M30.3448 57.9311H27.5862V60.6897H30.3448V57.9311Z" fill="black"/>
<path d="M30.3448 46.8967H27.5862V49.6553H30.3448V46.8967Z" fill="black"/>
<path d="M30.3448 44.1381H27.5862V46.8967H30.3448V44.1381Z" fill="black"/>
<path d="M30.3448 41.3794V44.138H27.5862V46.8966V49.6553H24.8276V52.4139H22.069H19.3104H16.5517H13.7931H11.0345V49.6553V46.8966H8.27588V44.138V41.3794V38.6208V35.8622H11.0345V33.1035H13.7931V30.3449H16.5517H19.3104H22.069H24.8276H27.5862V33.1035V35.8622H30.3448V38.6208V41.3794Z" fill="white"/>
<path d="M30.3448 33.1035H27.5862V35.8621H30.3448V33.1035Z" fill="black"/>
<path d="M30.3448 30.3449H27.5862V33.1035H30.3448V30.3449Z" fill="black"/>
<path d="M30.3448 27.5863H27.5862V30.3449H30.3448V27.5863Z" fill="black"/>
<path d="M30.3448 2.75867H27.5862V5.51729H30.3448V2.75867Z" fill="black"/>
<path d="M30.3448 6.10352e-05H27.5862V2.75868H30.3448V6.10352e-05Z" fill="black"/>
<path d="M27.5863 74.4828H24.8276V77.2414H27.5863V74.4828Z" fill="black"/>
<path d="M27.5863 66.207H24.8276V68.9656H27.5863V66.207Z" fill="black"/>
<path d="M27.5863 55.1725H24.8276V57.9311H27.5863V55.1725Z" fill="black"/>
<path d="M27.5863 49.6553H24.8276V52.4139H27.5863V49.6553Z" fill="black"/>
<path d="M27.5863 27.5863H24.8276V30.3449H27.5863V27.5863Z" fill="black"/>
<path d="M27.5863 2.75867H24.8276V5.51729H27.5863V2.75867Z" fill="black"/>
<path d="M24.8276 74.4828H22.069V77.2414H24.8276V74.4828Z" fill="black"/>
<path d="M24.8276 68.9656H22.069V71.7242H24.8276V68.9656Z" fill="black"/>
<path d="M24.8276 52.4139H22.069V55.1725H24.8276V52.4139Z" fill="black"/>
<path d="M24.8276 27.5863H22.069V30.3449H24.8276V27.5863Z" fill="black"/>
<path d="M24.8276 2.75867H22.069V5.51729H24.8276V2.75867Z" fill="black"/>
<path d="M22.069 74.4828H19.3104V77.2414H22.069V74.4828Z" fill="black"/>
<path d="M22.069 71.7242H19.3104V74.4828H22.069V71.7242Z" fill="black"/>
<path d="M22.069 52.4139H19.3104V55.1725H22.069V52.4139Z" fill="black"/>
<path d="M22.069 27.5863H19.3104V30.3449H22.069V27.5863Z" fill="black"/>
<path d="M22.069 2.75867H19.3104V5.51729H22.069V2.75867Z" fill="black"/>
<path d="M19.3104 71.7242H16.5518V74.4828H19.3104V71.7242Z" fill="black"/>
<path d="M19.3104 52.4139H16.5518V55.1725H19.3104V52.4139Z" fill="black"/>
<path d="M19.3104 27.5863H16.5518V30.3449H19.3104V27.5863Z" fill="black"/>
<path d="M19.3104 5.51727H16.5518V8.27589H19.3104V5.51727Z" fill="black"/>
<path d="M16.5517 68.9656H13.7931V71.7242H16.5517V68.9656Z" fill="black"/>
<path d="M16.5517 52.4139H13.7931V55.1725H16.5517V52.4139Z" fill="black"/>
<path d="M16.5517 27.5863H13.7931V30.3449H16.5517V27.5863Z" fill="black"/>
<path d="M16.5517 8.27588H13.7931V11.0345H16.5517V8.27588Z" fill="black"/>
<path d="M13.7931 66.207H11.0345V68.9656H13.7931V66.207Z" fill="black"/>
<path d="M13.7931 52.4139H11.0345V55.1725H13.7931V52.4139Z" fill="black"/>
<path d="M13.7931 30.3449H11.0345V33.1035H13.7931V30.3449Z" fill="black"/>
<path d="M13.7931 27.5863H11.0345V30.3449H13.7931V27.5863Z" fill="black"/>
<path d="M13.7931 24.8276H11.0345V27.5863H13.7931V24.8276Z" fill="black"/>
<path d="M13.7931 22.069H11.0345V24.8277H13.7931V22.069Z" fill="black"/>
<path d="M13.7931 11.0346H11.0345V13.7932H13.7931V11.0346Z" fill="black"/>
<path d="M11.0345 63.4484H8.27588V66.207H11.0345V63.4484Z" fill="black"/>
<path d="M11.0345 55.1725H8.27588V57.9311H11.0345V55.1725Z" fill="black"/>
<path d="M11.0345 49.6553H8.27588V52.4139H11.0345V49.6553Z" fill="black"/>
<path d="M11.0345 46.8967H8.27588V49.6553H11.0345V46.8967Z" fill="black"/>
<path d="M11.0345 33.1035H8.27588V35.8621H11.0345V33.1035Z" fill="black"/>
<path d="M11.0345 19.3104H8.27588V22.069H11.0345V19.3104Z" fill="black"/>
<path d="M11.0345 13.7932H8.27588V16.5518H11.0345V13.7932Z" fill="black"/>
<path d="M8.27589 60.6898H5.51727V63.4484H8.27589V60.6898Z" fill="black"/>
<path d="M8.27589 57.9311H5.51727V60.6897H8.27589V57.9311Z" fill="black"/>
<path d="M8.27589 44.1381H5.51727V46.8967H8.27589V44.1381Z" fill="black"/>
<path d="M8.27589 41.3793H5.51727V44.138H8.27589V41.3793Z" fill="black"/>
<path d="M8.27589 38.6207H5.51727V41.3794H8.27589V38.6207Z" fill="black"/>
<path d="M8.27589 35.8621H5.51727V38.6207H8.27589V35.8621Z" fill="black"/>
<path d="M8.27589 19.3104H5.51727V22.069H8.27589V19.3104Z" fill="black"/>
<path d="M8.27589 16.5518H5.51727V19.3104H8.27589V16.5518Z" fill="black"/>
<path d="M5.51729 55.1725H2.75867V57.9311H5.51729V55.1725Z" fill="black"/>
<path d="M5.51729 52.4139H2.75867V55.1725H5.51729V52.4139Z" fill="black"/>
<path d="M5.51729 38.6207H2.75867V41.3794H5.51729V38.6207Z" fill="black"/>
<path d="M5.51729 24.8276H2.75867V27.5863H5.51729V24.8276Z" fill="black"/>
<path d="M5.51729 22.069H2.75867V24.8277H5.51729V22.069Z" fill="black"/>
<path d="M2.75862 49.6553H0V52.4139H2.75862V49.6553Z" fill="black"/>
<path d="M2.75862 46.8967H0V49.6553H2.75862V46.8967Z" fill="black"/>
<path d="M2.75862 44.1381H0V46.8967H2.75862V44.1381Z" fill="black"/>
<path d="M2.75862 41.3793H0V44.138H2.75862V41.3793Z" fill="black"/>
<path d="M2.75862 38.6207H0V41.3794H2.75862V38.6207Z" fill="black"/>
<path d="M2.75862 35.8621H0V38.6207H2.75862V35.8621Z" fill="black"/>
<path d="M2.75862 33.1035H0V35.8621H2.75862V33.1035Z" fill="black"/>
<path d="M2.75862 30.3449H0V33.1035H2.75862V30.3449Z" fill="black"/>
<path d="M2.75862 27.5863H0V30.3449H2.75862V27.5863Z" fill="black"/>
</svg>
