<svg width="94" height="81" viewBox="0 0 94 81" fill="none" xmlns="http://www.w3.org/2000/svg">
<g clip-path="url(#clip0_2933_40157)">
<path d="M93.6789 22.7238V36.0523H89.2166V40.4854H80.3504V36.0523H75.8881V76.0377H75.859V80.5H18.112V36.0523H13.6789V40.4854H4.7835V36.0523H0.350403V22.7238H4.7835V18.2616H9.24577V13.8285H13.6789V9.39537H18.112V4.9331H31.4404V0.5H62.5597V4.9331H75.8881V9.39537H80.3504V13.8285H84.7835V18.2616H89.2166V22.7238H93.6789Z" fill="white"/>
<path d="M27.125 80.5H18.1904V4.93312H27.125V80.5Z" fill="#FF0000"/>
<path d="M43.3532 80.5H34.4186V0.5H43.3532V80.5Z" fill="#FF0000"/>
<path d="M59.5814 80.5H50.6468V0.5H59.5814V80.5Z" fill="#FF0000"/>
<path d="M75.8096 80.5H66.875V4.93312H75.8096V80.5Z" fill="#FF0000"/>
<path d="M9.25582 40.4853H4.78352V36.0524H0.350403V22.7238H4.78352V18.2615H9.24567L9.25582 40.4853Z" fill="#FF0000"/>
<path d="M84.7834 18.2615H89.2165V22.7238H93.6788V36.0524H89.2165V40.4853H84.7442L84.7834 18.2615Z" fill="#FF0000"/>
</g>
<defs>
<clipPath id="clip0_2933_40157">
<rect width="93.3576" height="80" fill="white" transform="translate(0.321167 0.5)"/>
</clipPath>
</defs>
</svg>
