<svg width="274" height="280" viewBox="0 0 274 280" fill="none" xmlns="http://www.w3.org/2000/svg">
<g clip-path="url(#clip0_2875_106848)">
<path d="M76.5696 108.174V127.264H57.48V120.9H51.1169V114.537H44.7537V101.811H38.3905V76.3581H32.0273V69.9949H25.6641V44.5421H32.0273V38.179H51.1169V50.9053H63.8432V63.234H57.48V69.9949H51.1169V76.3581H57.48V89.0844H63.8432V101.811H70.2064V108.174H76.5696Z" fill="white"/>
<path d="M197.43 108.174V127.264H216.52V120.9H222.883V114.537H229.246V101.811H235.609V76.3581H241.973V69.9949H248.336V44.5421H241.973V38.179H222.883V50.9053H210.157V63.234H216.52V69.9949H222.883V76.3581H216.52V89.0844H210.157V101.811H203.794V108.174H197.43Z" fill="white"/>
<path d="M273.789 19.0893V108.174H241.973V12.7261H249.927H265.835V19.0893H273.789Z" fill="#DBFD01"/>
<path d="M32.0273 12.7261V108.174H0.211426V19.0893H6.57461V12.7261H19.301H32.0273Z" fill="#DBFD01"/>
<path d="M248.336 44.5423H165.614V38.1791H108.386V44.5423H25.6641V0H248.336V44.5423Z" fill="#DBFD01"/>
<path d="M184.704 82.7214V101.811H178.341V114.537H171.978V120.9H159.251V133.627H146.525V139.99H127.475V133.627H114.749V120.9H102.022V114.537H95.6592V101.811H89.296V82.7214H102.022V63.6318H171.978V82.7214H184.704Z" fill="white"/>
<path d="M127.475 82.7217H114.749V101.811H127.475V82.7217Z" fill="black"/>
<path d="M63.8433 120.901H57.4801V127.264H63.8433V120.901Z" fill="white"/>
<path d="M102.022 229.094H95.6592V235.457H102.022V229.094Z" fill="#BCBCBC"/>
<path d="M108.386 229.094H102.022V235.457H108.386V229.094Z" fill="#BCBCBC"/>
<path d="M114.749 229.094H108.386V235.457H114.749V229.094Z" fill="#BCBCBC"/>
<path d="M121.112 229.094H114.749V235.457H121.112V229.094Z" fill="#BCBCBC"/>
<path d="M102.022 235.458H95.6592V241.821H102.022V235.458Z" fill="white"/>
<path d="M108.386 235.458H102.022V241.821H108.386V235.458Z" fill="white"/>
<path d="M114.749 235.458H108.386V241.821H114.749V235.458Z" fill="white"/>
<path d="M121.112 235.458H114.749V241.821H121.112V235.458Z" fill="white"/>
<path d="M102.022 241.821H95.6592V248.184H102.022V241.821Z" fill="white"/>
<path d="M108.386 241.821H102.022V248.184H108.386V241.821Z" fill="white"/>
<path d="M114.749 241.821H108.386V248.184H114.749V241.821Z" fill="white"/>
<path d="M121.112 241.821H114.749V248.184H121.112V241.821Z" fill="white"/>
<path d="M102.022 248.184H95.6592V254.547H102.022V248.184Z" fill="black"/>
<path d="M108.386 248.184H102.022V254.547H108.386V248.184Z" fill="black"/>
<path d="M114.749 248.184H108.386V254.547H114.749V248.184Z" fill="black"/>
<path d="M121.112 248.184H114.749V254.547H121.112V248.184Z" fill="black"/>
<path d="M102.022 254.547H95.6592V260.911H102.022V254.547Z" fill="#DBFD01"/>
<path d="M108.386 254.547H102.022V260.911H108.386V254.547Z" fill="#DBFD01"/>
<path d="M114.749 254.547H108.386V260.911H114.749V254.547Z" fill="#DBFD01"/>
<path d="M121.112 254.547H114.749V260.911H121.112V254.547Z" fill="#DBFD01"/>
<path d="M102.022 260.91H95.6592V267.273H102.022V260.91Z" fill="#DBFD01"/>
<path d="M95.6592 260.91H89.296V267.273H95.6592V260.91Z" fill="#DBFD01"/>
<path d="M108.386 260.91H102.022V267.273H108.386V260.91Z" fill="#DBFD01"/>
<path d="M114.749 260.91H108.386V267.273H114.749V260.91Z" fill="#DBFD01"/>
<path d="M121.112 260.91H114.749V267.273H121.112V260.91Z" fill="#DBFD01"/>
<path d="M102.022 267.273H95.6592V273.637H102.022V267.273Z" fill="#DBFD01"/>
<path d="M108.386 267.273H102.022V273.637H108.386V267.273Z" fill="#DBFD01"/>
<path d="M114.749 267.273H108.386V273.637H114.749V267.273Z" fill="#DBFD01"/>
<path d="M121.112 267.273H114.749V273.637H121.112V267.273Z" fill="#DBFD01"/>
<path d="M102.022 273.637H95.6592V280H102.022V273.637Z" fill="#738500"/>
<path d="M95.6592 267.273H89.296V273.637H95.6592V267.273Z" fill="#DBFD01"/>
<path d="M95.6592 273.637H89.296V280H95.6592V273.637Z" fill="#738500"/>
<path d="M89.296 267.273H82.9328V273.637H89.296V267.273Z" fill="#DBFD01"/>
<path d="M89.296 273.637H82.9328V280H89.296V273.637Z" fill="#738500"/>
<path d="M82.9329 267.273H76.5697V273.637H82.9329V267.273Z" fill="#DBFD01"/>
<path d="M82.9329 273.637H76.5697V280H82.9329V273.637Z" fill="#738500"/>
<path d="M108.386 273.637H102.022V280H108.386V273.637Z" fill="#738500"/>
<path d="M114.749 273.637H108.386V280H114.749V273.637Z" fill="#738500"/>
<path d="M121.112 273.637H114.749V280H121.112V273.637Z" fill="#738500"/>
<path d="M171.978 38.179H102.022V44.5421H171.978V38.179Z" fill="#738500"/>
<path d="M89.296 0H57.4801V44.5423H89.296V0Z" fill="white"/>
<path d="M25.6443 44.542H0.211426V19.0893H6.57461V12.7261H25.6443V44.542Z" fill="white"/>
<path d="M248.336 44.542H273.789V19.0893H267.426V12.7261H248.336V44.542Z" fill="white"/>
<path d="M152.908 31.8159H121.092V44.5423H152.908V31.8159Z" fill="#BCBCBC"/>
<path d="M121.112 38.179H89.296V44.5421H121.112V38.179Z" fill="#738500"/>
<path d="M184.744 38.179H152.928V44.5421H184.744V38.179Z" fill="#738500"/>
<path d="M152.908 0H121.092V44.5423H152.908V0Z" fill="white"/>
<path d="M216.54 0H184.724V44.5423H216.54V0Z" fill="white"/>
<path d="M165.615 31.8159H108.386V38.1791H165.615V31.8159Z" fill="#738500"/>
<path d="M184.704 57.2685V82.7212H178.341V89.0844H171.978V63.6317H102.022V89.0844H95.6592V82.7212H89.296V57.2685H95.6592V50.9053H102.022V44.5421H108.386V38.179H165.614V44.5421H171.978V50.9053H178.341V57.2685H184.704Z" fill="#DBFD01"/>
<path d="M159.251 82.7217H146.525V101.811H159.251V82.7217Z" fill="black"/>
<path d="M171.978 235.438H178.341V229.074H171.978V235.438Z" fill="#BCBCBC"/>
<path d="M165.614 235.438H171.978V229.074H165.614V235.438Z" fill="#BCBCBC"/>
<path d="M159.251 235.438H165.614V229.074H159.251V235.438Z" fill="#BCBCBC"/>
<path d="M152.888 235.438H159.251V229.074H152.888V235.438Z" fill="#BCBCBC"/>
<path d="M171.978 241.801H178.341V235.438H171.978V241.801Z" fill="white"/>
<path d="M165.614 241.801H171.978V235.438H165.614V241.801Z" fill="white"/>
<path d="M159.251 241.801H165.614V235.438H159.251V241.801Z" fill="white"/>
<path d="M152.888 241.801H159.251V235.438H152.888V241.801Z" fill="white"/>
<path d="M171.978 248.164H178.341V241.801H171.978V248.164Z" fill="white"/>
<path d="M165.614 248.164H171.978V241.801H165.614V248.164Z" fill="white"/>
<path d="M159.251 248.164H165.614V241.801H159.251V248.164Z" fill="white"/>
<path d="M152.888 248.164H159.251V241.801H152.888V248.164Z" fill="white"/>
<path d="M171.978 254.527H178.341V248.164H171.978V254.527Z" fill="black"/>
<path d="M165.614 254.527H171.978V248.164H165.614V254.527Z" fill="black"/>
<path d="M159.251 254.527H165.614V248.164H159.251V254.527Z" fill="black"/>
<path d="M152.888 254.527H159.251V248.164H152.888V254.527Z" fill="black"/>
<path d="M171.978 260.891H178.341V254.527H171.978V260.891Z" fill="#DBFD01"/>
<path d="M165.614 260.891H171.978V254.527H165.614V260.891Z" fill="#DBFD01"/>
<path d="M159.251 260.891H165.614V254.527H159.251V260.891Z" fill="#DBFD01"/>
<path d="M152.888 260.891H159.251V254.527H152.888V260.891Z" fill="#DBFD01"/>
<path d="M171.978 267.253H178.341V260.89H171.978V267.253Z" fill="#DBFD01"/>
<path d="M178.341 267.253H184.704V260.89H178.341V267.253Z" fill="#DBFD01"/>
<path d="M165.614 267.253H171.978V260.89H165.614V267.253Z" fill="#DBFD01"/>
<path d="M159.251 267.253H165.614V260.89H159.251V267.253Z" fill="#DBFD01"/>
<path d="M152.888 267.253H159.251V260.89H152.888V267.253Z" fill="#DBFD01"/>
<path d="M171.978 273.617H178.341V267.254H171.978V273.617Z" fill="#DBFD01"/>
<path d="M165.614 273.617H171.978V267.254H165.614V273.617Z" fill="#DBFD01"/>
<path d="M159.251 273.617H165.614V267.254H159.251V273.617Z" fill="#DBFD01"/>
<path d="M152.888 273.617H159.251V267.254H152.888V273.617Z" fill="#DBFD01"/>
<path d="M171.978 279.98H178.341V273.617H171.978V279.98Z" fill="#738500"/>
<path d="M178.341 273.617H184.704V267.254H178.341V273.617Z" fill="#DBFD01"/>
<path d="M178.341 279.98H184.704V273.617H178.341V279.98Z" fill="#738500"/>
<path d="M184.704 273.617H191.067V267.254H184.704V273.617Z" fill="#DBFD01"/>
<path d="M184.704 279.98H191.067V273.617H184.704V279.98Z" fill="#738500"/>
<path d="M191.067 273.617H197.43V267.254H191.067V273.617Z" fill="#DBFD01"/>
<path d="M191.067 279.98H197.43V273.617H191.067V279.98Z" fill="#738500"/>
<path d="M165.614 279.98H171.978V273.617H165.614V279.98Z" fill="#738500"/>
<path d="M159.251 279.98H165.614V273.617H159.251V279.98Z" fill="#738500"/>
<path d="M152.888 279.98H159.251V273.617H152.888V279.98Z" fill="#738500"/>
<path d="M184.744 197.278V203.642H184.704V229.094H140.162V210.005H133.838V229.094H89.296V197.278H184.744Z" fill="#DBFD01"/>
<path d="M184.704 190.916H89.296V197.279H184.704V190.916Z" fill="#738500"/>
<path d="M114.749 127.283H159.251V120.92H114.749V127.283Z" fill="#BCBCBC"/>
<path d="M102.022 76.3579V89.0843H95.6592V82.7211H89.296V76.3579H102.022Z" fill="#738500"/>
<path d="M102.022 63.6318H89.296V69.995H102.022V63.6318Z" fill="#738500"/>
<path d="M171.978 76.3579V89.0843H178.341V82.7211H184.704V76.3579H171.978Z" fill="#738500"/>
<path d="M184.704 63.6318H171.978V69.995H184.704V63.6318Z" fill="#738500"/>
<path d="M133.838 210.005H127.475V229.095H133.838V210.005Z" fill="#738500"/>
<path d="M146.525 210.005H140.162V229.095H146.525V210.005Z" fill="#738500"/>
<path d="M210.157 120.901V139.99H197.43V146.354H184.704V190.916H89.296V146.354H76.5696V139.99H63.8433V120.901H70.2064V114.538H82.9328V120.901H95.6592V127.264H114.749V133.627H127.475V139.99H146.525V133.627H159.251V127.264H178.341V120.901H191.067V114.538H203.794V120.901H210.157Z" fill="#DBFD01"/>
<path d="M76.5697 108.174H70.2065V114.537H76.5697V108.174Z" fill="#BCBCBC"/>
<path d="M70.2064 114.538H63.8433V120.901H70.2064V114.538Z" fill="#BCBCBC"/>
<path d="M63.8433 120.901H57.4801V127.264H63.8433V120.901Z" fill="#BCBCBC"/>
<path d="M197.43 114.538H203.794V108.174H197.43V114.538Z" fill="#BCBCBC"/>
<path d="M203.794 120.901H210.157V114.537H203.794V120.901Z" fill="#BCBCBC"/>
<path d="M210.157 127.264H216.52V120.9H210.157V127.264Z" fill="#BCBCBC"/>
<path d="M159.271 139.99H178.361V133.627H159.271V139.99Z" fill="black"/>
<path d="M178.361 133.647H191.067V127.284H178.361V133.647Z" fill="black"/>
<path d="M191.067 127.283H197.43V120.92H191.067V127.283Z" fill="black"/>
<path d="M159.271 139.99H178.361V133.627H159.271V139.99Z" fill="black"/>
<path d="M178.361 133.647H191.067V127.284H178.361V133.647Z" fill="black"/>
<path d="M191.067 127.283H197.43V120.92H191.067V127.283Z" fill="black"/>
<path d="M114.749 133.627H95.6592V139.99H114.749V133.627Z" fill="black"/>
<path d="M95.6393 127.264H82.9328V133.627H95.6393V127.264Z" fill="black"/>
<path d="M82.9329 120.92H76.5697V127.284H82.9329V120.92Z" fill="black"/>
<path d="M32.0273 76.3579H0.211426V108.174H32.0273V76.3579Z" fill="white"/>
<path d="M273.789 76.3579H241.973V108.174H273.789V76.3579Z" fill="white"/>
<path d="M57.48 38.179H25.6641V44.5421H57.48V38.179Z" fill="#738500"/>
<path d="M89.296 38.179H57.4801V44.5421H89.296V38.179Z" fill="#BCBCBC"/>
<path d="M19.2812 12.7262L19.2812 44.5222H25.6444V12.7262H19.2812Z" fill="#BCBCBC"/>
<path d="M248.336 12.746V44.542H254.699V12.746H248.336Z" fill="#BCBCBC"/>
<path d="M241.973 44.5619V76.3579H248.336V44.5619H241.973Z" fill="#738500"/>
<path d="M25.6641 44.5619L25.6641 76.3579H32.0273V44.5619H25.6641Z" fill="#738500"/>
<path d="M241.973 76.3778V108.174H248.336V76.3778H241.973Z" fill="#BCBCBC"/>
<path d="M216.54 38.179H184.724V44.5421H216.54V38.179Z" fill="#BCBCBC"/>
<path d="M248.376 38.179H216.56V44.5421H248.376V38.179Z" fill="#738500"/>
<path d="M25.6641 76.3778L25.6641 108.174H32.0273V76.3778H25.6641Z" fill="#BCBCBC"/>
<path d="M125.109 171.568C126.063 172.124 126.938 173.715 127.415 175.704C127.813 177.374 129.722 178.328 131.392 177.931C133.142 177.533 134.256 176.101 134.176 174.431C134.176 172.761 132.506 171.568 130.677 171.647C128.529 171.727 125.268 169.659 125.188 166.795C125.109 163.852 127.654 160.512 131.472 159.637C133.301 159.239 134.335 157.569 134.256 155.978C134.256 154.307 132.745 153.194 130.915 153.592C129.165 153.91 127.893 155.501 127.893 157.25C127.893 158.443 127.177 160.591 125.745 162.182C124.472 163.614 122.802 164.329 121.768 164.727C119.939 165.363 118.587 166.795 118.666 168.466C118.666 169.897 119.7 170.931 121.45 170.931C123.041 170.931 124.075 170.931 125.109 171.568Z" fill="black"/>
<path d="M121.211 162.897C123.2 162.897 124.552 160.352 124.87 158.761C125.268 157.091 124.87 153.75 128.449 152.875C130.358 152.557 133.62 150.489 133.063 149.217C132.586 147.864 128.688 149.217 127.415 150.728C127.415 150.728 126.62 151.523 126.541 152.239C125.904 155.262 122.325 156.137 120.655 158.92C119.939 160.114 119.7 161.386 120.018 162.182C120.257 162.579 120.655 162.897 121.211 162.897Z" fill="black"/>
<path d="M152.789 168.545C151.357 170.454 149.527 169.181 149.368 167.113C149.209 164.886 146.346 163.932 144.119 165.443C141.414 167.352 137.517 166.636 136.244 164.091C135.21 160.75 129.961 161.307 128.449 164.807C127.177 167.909 130.517 170.772 133.699 169.022C136.722 167.272 141.096 167.113 142.13 169.977C142.687 171.488 143.721 171.965 144.835 172.124C146.982 172.363 148.653 169.181 150.88 170.613C151.675 171.17 151.198 172.999 152.073 172.84C152.311 172.84 152.47 172.601 152.789 172.283C153.584 171.408 154.061 170.215 154.061 169.102V168.227C153.902 167.67 153.186 167.829 152.789 168.386V168.545Z" fill="black"/>
<path d="M153.107 159.795C153.107 159.795 152.709 159.955 152.55 160.114C152.391 160.352 152.232 160.273 152.152 160.432C151.277 161.307 147.3 161.307 146.664 159.795C146.187 158.523 146.903 157.489 145.948 156.296C143.96 153.75 141.176 155.262 140.46 154.387C139.983 153.75 139.426 152.796 141.017 150.251C141.971 148.739 139.505 147.387 137.04 147.944C135.449 148.342 134.176 149.535 134.176 150.728C134.176 151.682 135.369 152.239 136.881 152.557C138.153 152.796 139.187 153.671 139.346 154.784C139.426 155.262 139.426 155.739 139.108 156.216C137.358 159.159 137.835 161.307 138.551 162.102C139.744 163.454 141.892 163.852 144.516 162.182C144.755 162.023 144.994 161.863 145.232 161.784C147.459 160.989 150.8 162.261 151.436 164.568C152.232 167.352 154.379 167.352 154.857 164.329C155.175 162.738 154.777 159.795 153.107 159.955V159.795Z" fill="black"/>
<path d="M147.38 152.478C148.096 152.398 149.528 153.194 149.448 153.91C148.891 157.012 151.834 159.796 153.425 158.523C154.061 157.887 154.061 156.057 153.664 155.421C153.107 154.546 152.47 153.114 150.721 152.955C148.971 152.796 148.732 152.16 148.334 151.205C147.778 149.853 147.062 149.296 145.789 148.74C144.835 148.342 142.767 148.103 142.528 149.296C142.13 151.523 146.425 152.557 147.38 152.478Z" fill="black"/>
<path d="M143.801 177.056C142.369 177.692 142.051 176.579 142.608 175.465C143.244 173.954 142.608 173.158 142.608 173.158C140.858 170.534 134.654 172.84 135.529 176.101C135.847 177.772 134.017 179.442 131.949 180.158C127.972 181.43 126.302 178.328 126.461 176.658C126.62 174.431 122.564 172.045 120.973 174.033C120.177 174.988 120.734 176.976 122.245 178.01C122.882 178.408 123.2 178.567 124.313 178.885C127.813 179.84 129.165 182.385 129.165 182.385C129.881 183.499 135.369 183.339 135.131 181.669C134.733 181.033 135.529 180.317 136.085 179.681C137.358 178.169 139.028 178.328 140.46 177.453C141.971 176.579 141.971 178.249 141.653 178.647C141.255 179.124 141.017 179.601 140.778 180.158C140.38 183.339 147.778 179.522 147.3 177.294C146.903 176.101 145.153 176.658 143.96 177.135L143.801 177.056Z" fill="black"/>
<path d="M19.3011 108.194H12.9379V120.92H19.3011V108.194Z" fill="#DBFD01"/>
<path d="M32.0273 108.194H25.6641V120.92H32.0273V108.194Z" fill="#DBFD01"/>
<path d="M6.57461 108.194H0.211426V120.92H6.57461V108.194Z" fill="#DBFD01"/>
<path d="M261.062 108.194H254.699V120.92H261.062V108.194Z" fill="#DBFD01"/>
<path d="M273.789 108.194H267.425V120.92H273.789V108.194Z" fill="#DBFD01"/>
<path d="M248.336 108.194H241.973V120.92H248.336V108.194Z" fill="#DBFD01"/>
<path d="M41.8306 26.2482C40.3193 26.2482 39.0467 26.0693 37.9928 25.6915C36.9588 25.3136 36.1435 24.7966 35.5867 24.1404C35.0299 23.4643 34.6919 22.6888 34.5925 21.794H38.2314C38.311 22.2514 38.5098 22.6292 38.828 22.9274C39.1461 23.2257 39.5637 23.4445 40.1006 23.5836C40.6375 23.7228 41.2539 23.8024 41.93 23.8024C42.4073 23.8024 42.8248 23.7626 43.2027 23.703C43.5805 23.6433 43.9185 23.5439 44.177 23.4246C44.4554 23.3053 44.6741 23.1263 44.8133 22.9274C44.9724 22.7087 45.0321 22.4502 45.0321 22.1519C45.0321 21.8537 44.9525 21.5952 44.7934 21.3963C44.6344 21.1975 44.3957 21.0185 44.0577 20.8992C43.7197 20.7799 43.3021 20.6606 42.7652 20.6009L39.6631 20.2032C38.649 20.0839 37.7741 19.8652 37.0781 19.547C36.3821 19.2288 35.8452 18.8311 35.4674 18.3141C35.1095 17.7971 34.9305 17.1608 34.9305 16.4052C34.9305 15.7092 35.0896 15.1127 35.4078 14.5559C35.7259 13.9991 36.1634 13.5417 36.7599 13.1639C37.3565 12.7662 38.0524 12.4878 38.8876 12.289C39.7228 12.0901 40.6375 11.9907 41.6715 11.9907C43.0237 11.9907 44.1969 12.1498 45.1713 12.4878C46.1655 12.8259 46.941 13.2832 47.4978 13.8997C48.0546 14.4962 48.4125 15.232 48.5119 16.1069H44.873C44.7736 15.7092 44.5747 15.3712 44.2764 15.1325C43.9782 14.8939 43.6003 14.715 43.143 14.5957C42.6856 14.4763 42.1686 14.4167 41.5721 14.4167C40.9755 14.4167 40.4386 14.4763 40.0211 14.6155C39.6035 14.7348 39.3052 14.9138 39.0865 15.1524C38.8677 15.391 38.7683 15.6496 38.7683 15.9478C38.7683 16.2063 38.8478 16.445 38.987 16.6438C39.1262 16.8426 39.3649 17.0017 39.7029 17.121C40.0409 17.2403 40.4386 17.3398 40.9557 17.3994L43.7594 17.7574C44.7736 17.8568 45.6485 18.0556 46.424 18.3539C47.1995 18.6522 47.7961 19.0897 48.2335 19.6464C48.671 20.2032 48.8897 20.9787 48.8897 21.9332C48.8897 22.6292 48.7307 23.2456 48.4125 23.8024C48.0943 24.3393 47.6171 24.7966 47.0007 25.1744C46.3842 25.5523 45.6485 25.8306 44.7736 26.0295C43.8986 26.2283 42.9044 26.3079 41.8107 26.3079L41.8306 26.2482Z" fill="black"/>
<path d="M98.0056 26.0495V23.3849L106.874 14.9935H98.4033V12.1499H111.945V14.7747L103.096 23.2059H112.343V26.0495H98.0255H98.0056Z" fill="black"/>
<path d="M162.214 26.0493V12.1299H175.398V14.9535H165.853V23.2058H175.398V26.0493H162.214ZM165.555 20.2628V17.6977H172.574V20.2628H165.555Z" fill="black"/>
<path d="M225.926 26.0493V12.1299H238.97V14.9734H229.584V26.0493H225.945H225.926ZM229.266 20.9986V18.155H237.956V20.9986H229.266Z" fill="black"/>
</g>
<defs>
<clipPath id="clip0_2875_106848">
<rect width="273.577" height="280" fill="white" transform="translate(0.211426)"/>
</clipPath>
</defs>
</svg>
