<svg width="338" height="432" viewBox="0 0 338 432" fill="none" xmlns="http://www.w3.org/2000/svg">
<g clip-path="url(#clip0_3008_59623)">
<rect x="9" y="9" width="320" height="693.74" rx="32.57" fill="black"/>
<path d="M-60.6044 286.93C-42.3372 298.436 -24.2345 328.681 -15.0186 368.131C-7.61298 401.335 29.9089 419.088 62.9873 412.184C97.0533 404.787 118.776 376.679 116.966 343.64C115.814 311.586 83.8877 288.245 48.6698 289.889C6.04628 292.19 -56.6548 251.589 -58.7942 194.387C-61.0981 137.184 -9.91701 72.0916 64.633 54.3391C101.003 45.7916 120.916 13.7385 119.27 -17.6572C118.118 -50.861 89.1539 -71.901 54.4297 -64.5041C20.3638 -57.6004 -4.81535 -26.6978 -5.30907 7.4922C-5.80278 30.9978 -19.462 72.0917 -46.7805 103.487C-71.3014 132.089 -104.874 145.732 -125.28 152.636C-161.65 165.292 -187.323 192.743 -186.171 226.44C-185.019 255.041 -165.764 275.095 -132.192 275.095C-101.418 274.602 -81.011 274.602 -60.4398 287.094L-60.6044 286.93Z" fill="url(#paint0_linear_3008_59623)"/>
<path d="M-136.8 117.13C-97.4679 117.13 -71.9597 66.8315 -64.554 36.5864C-55.9964 3.38261 -63.4021 -61.71 5.38802 -77.8187C42.4162 -84.065 106.105 -124.173 95.243 -149.322C86.1917 -176.115 8.84398 -148.171 -15.1832 -120.228C-15.1832 -120.228 -30.4881 -105.434 -32.7921 -90.4756C-44.8057 -31.6293 -115.9 -13.8768 -148.32 39.8739C-162.473 63.8727 -166.587 88.529 -160.827 103.323C-156.878 111.87 -147.662 116.966 -136.965 116.966L-136.8 117.13Z" fill="url(#paint1_linear_3008_59623)"/>
<path d="M480.5 226.933C453.182 264.739 416.812 238.932 414.014 198.332C411.217 154.937 354.276 135.376 310.994 166.279C258.661 203.427 181.313 189.784 157.45 140.472C137.044 74.7216 34.5168 86.721 4.4006 154.115C-21.2722 214.769 44.2265 270.821 107.915 236.96C166.502 202.112 253.559 199.811 273.472 256.356C283.675 286.601 305.398 295.313 325.805 298.108C367.935 303.203 400.849 240.412 444.789 268.356C460.752 278.711 451.042 314.709 467.499 312.408C471.449 311.258 476.057 307.313 481.159 301.559C497.122 283.807 505.68 261.452 506.173 239.754C506.173 232.851 506.173 227.097 505.68 223.152C502.882 212.797 488.071 214.605 480.665 226.604L480.5 226.933Z" fill="url(#paint2_linear_3008_59623)"/>
<path d="M487.906 55.983C483.956 56.4762 480.5 58.7774 477.703 62.2293C474.905 66.1743 471.943 65.6812 469.803 67.9824C453.346 85.7349 374.847 85.7349 362.339 54.8324C352.63 30.1761 366.947 9.13606 348.186 -14.3696C309.513 -64.1753 254.875 -34.9165 240.722 -52.1759C231.013 -64.8328 220.316 -83.0784 251.584 -133.377C270.345 -163.129 221.961 -189.922 174.236 -179.074C142.31 -171.677 117.953 -148.171 118.447 -124.83C118.941 -106.584 141.158 -94.5847 170.78 -89.3247C195.795 -84.7222 216.366 -66.9697 219.657 -45.9296C221.303 -36.7246 221.303 -26.5334 215.708 -17.3284C182.136 40.3674 190.035 81.6255 204.353 97.0768C227.721 122.884 269.851 131.431 321.032 98.7206C325.64 95.9262 330.084 92.9674 334.692 91.3237C378.467 75.8724 443.308 101.022 455.815 145.074C471.12 199.318 513.908 199.318 522.301 141.129C528.555 109.734 519.997 52.5311 488.235 55.983H487.906Z" fill="url(#paint3_linear_3008_59623)"/>
<path d="M374.682 -87.0237C388.342 -88.6675 416.812 -72.7231 414.508 -59.5731C404.305 1.57451 461.081 55.9827 493.008 31.3264C505.515 18.1764 505.515 -16.6712 497.616 -29.8212C486.754 -46.9162 474.905 -74.3669 439.523 -77.3256C405.457 -80.12 400.191 -92.7769 392.291 -112.173C381.43 -138.473 366.618 -149.322 342.262 -159.678C322.843 -167.732 283.017 -172.828 279.067 -148.829C270.51 -104.776 354.769 -84.7225 374.682 -87.0237Z" fill="url(#paint4_linear_3008_59623)"/>
<path d="M305.727 394.432C277.257 406.431 272.155 384.734 281.865 363.529C295.03 333.284 281.865 317.833 281.865 317.833C247.141 266.877 126.511 310.929 142.474 375.035C149.222 408.239 112.852 440.292 73.026 453.935C-5.47365 479.085 -37.4001 418.43 -35.0962 385.391C-32.2985 341.996 -111.292 295.642 -142.56 333.942C-157.371 352.187 -147.168 391.144 -118.039 412.349C-104.874 420.896 -98.62 423.855 -77.7197 429.444C-9.42329 448.347 16.7432 497.988 16.7432 497.988C30.4025 520.343 138.525 516.891 133.423 483.687C125.524 471.688 141.322 457.387 151.69 444.73C176.211 414.979 208.631 418.43 237.596 401.335C267.218 384.24 267.712 416.787 260.306 425.334C252.901 434.539 247.141 444.73 243.849 454.429C236.444 516.727 381.594 441.772 371.884 397.884C363.327 373.885 330.413 384.734 305.892 394.432H305.727Z" fill="url(#paint5_linear_3008_59623)"/>
<path d="M57.4614 30.1028C57.9841 30.1028 58.4798 30.1997 58.9484 30.3935C59.417 30.5827 59.8316 30.8801 60.192 31.2856C60.557 31.6867 60.8431 32.2026 61.0504 32.8334C61.2577 33.4597 61.3613 34.2145 61.3613 35.0977V35.1112C61.3613 36.2061 61.2036 37.1433 60.8882 37.9229C60.5728 38.7024 60.1199 39.3017 59.5297 39.7207C58.9439 40.1353 58.2432 40.3426 57.4276 40.3426C56.8283 40.3426 56.2876 40.2344 55.8055 40.0181C55.3279 39.7973 54.9313 39.4954 54.6159 39.1124C54.305 38.7249 54.0955 38.2834 53.9874 37.7877L53.9738 37.7133H55.6838L55.7109 37.7809C55.7965 38.0062 55.9181 38.2045 56.0759 38.3757C56.2381 38.5469 56.4318 38.6799 56.6571 38.7745C56.8869 38.8646 57.1438 38.9097 57.4276 38.9097C57.9413 38.9097 58.3604 38.7587 58.6848 38.4568C59.0137 38.1504 59.2593 37.7426 59.4215 37.2335C59.5882 36.7198 59.6829 36.152 59.7054 35.5302C59.7099 35.4626 59.7121 35.3973 59.7121 35.3342C59.7121 35.2666 59.7121 35.2013 59.7121 35.1382L59.408 33.5093C59.408 33.1398 59.3224 32.8041 59.1512 32.5022C58.9799 32.2003 58.7479 31.9615 58.455 31.7858C58.1666 31.6101 57.8399 31.5222 57.4749 31.5222C57.1235 31.5222 56.8013 31.6078 56.5084 31.779C56.2155 31.9503 55.9812 32.1846 55.8055 32.482C55.6298 32.7748 55.5419 33.1038 55.5419 33.4688V33.4823C55.5419 33.8608 55.6253 34.1965 55.792 34.4894C55.9587 34.7777 56.1862 35.0053 56.4746 35.172C56.763 35.3387 57.0919 35.4221 57.4614 35.4221C57.8309 35.4221 58.1621 35.341 58.455 35.1788C58.7479 35.0165 58.9799 34.7912 59.1512 34.5029C59.3224 34.2145 59.408 33.8878 59.408 33.5228V33.5093H59.8135V35.3072H59.577C59.4598 35.564 59.2863 35.8028 59.0565 36.0236C58.8267 36.2444 58.5429 36.4224 58.2049 36.5576C57.8715 36.6928 57.4795 36.7603 57.0289 36.7603C56.407 36.7603 55.8573 36.6207 55.3797 36.3413C54.9021 36.0619 54.5258 35.6789 54.2509 35.1923C53.9806 34.7056 53.8454 34.1559 53.8454 33.5431V33.5296C53.8454 32.8672 53.9986 32.2792 54.305 31.7655C54.6159 31.2473 55.044 30.8418 55.5892 30.5489C56.1389 30.2515 56.763 30.1028 57.4614 30.1028ZM64.4299 38.788C64.1235 38.788 63.8666 38.6866 63.6593 38.4839C63.4566 38.2766 63.3552 38.0243 63.3552 37.7269C63.3552 37.425 63.4566 37.1726 63.6593 36.9699C63.8666 36.7626 64.1235 36.659 64.4299 36.659C64.7408 36.659 64.9976 36.7626 65.2004 36.9699C65.4031 37.1726 65.5045 37.425 65.5045 37.7269C65.5045 38.0243 65.4031 38.2766 65.2004 38.4839C64.9976 38.6866 64.7408 38.788 64.4299 38.788ZM64.4299 33.7729C64.1235 33.7729 63.8666 33.6715 63.6593 33.4688C63.4566 33.2615 63.3552 33.0092 63.3552 32.7118C63.3552 32.4099 63.4566 32.1575 63.6593 31.9548C63.8666 31.7475 64.1235 31.6439 64.4299 31.6439C64.7408 31.6439 64.9976 31.7475 65.2004 31.9548C65.4031 32.1575 65.5045 32.4099 65.5045 32.7118C65.5045 33.0092 65.4031 33.2615 65.2004 33.4688C64.9976 33.6715 64.7408 33.7729 64.4299 33.7729ZM72.2296 40.0992V38.227H67.4578V36.8009C67.7147 36.3638 67.9715 35.9245 68.2284 35.4829C68.4897 35.0413 68.7533 34.602 69.0192 34.1649C69.2895 33.7233 69.5576 33.2885 69.8235 32.8605C70.0938 32.4279 70.3619 32.0021 70.6278 31.583C70.8981 31.1595 71.1685 30.7472 71.4388 30.3461H73.8923V36.7874H75.2103V38.227H73.8923V40.0992H72.2296ZM69.08 36.8279H72.2567V31.7385H72.1553C71.957 32.0449 71.752 32.3603 71.5402 32.6847C71.333 33.0092 71.1234 33.3403 70.9117 33.6783C70.6999 34.0162 70.4903 34.3564 70.2831 34.6989C70.0758 35.0368 69.8708 35.377 69.668 35.7195C69.4652 36.0574 69.2692 36.3931 69.08 36.7265V36.8279ZM79.2454 40.0992V32.0629H79.1237L76.6973 33.7729V32.1373L79.2454 30.3461H80.9824V40.0992H79.2454Z" fill="white"/>
<path fill-rule="evenodd" clip-rule="evenodd" d="M254.183 31.0549C254.183 30.5394 253.794 30.1216 253.314 30.1216H252.446C251.966 30.1216 251.577 30.5394 251.577 31.0549V39.1436C251.577 39.6591 251.966 40.0769 252.446 40.0769H253.314C253.794 40.0769 254.183 39.6591 254.183 39.1436V31.0549ZM248.129 32.1127H248.998C249.478 32.1127 249.867 32.5405 249.867 33.0684V39.1212C249.867 39.649 249.478 40.0769 248.998 40.0769H248.129C247.65 40.0769 247.261 39.649 247.261 39.1212V33.0684C247.261 32.5405 247.65 32.1127 248.129 32.1127ZM244.602 34.2696H243.734C243.254 34.2696 242.865 34.703 242.865 35.2375V39.109C242.865 39.6436 243.254 40.0769 243.734 40.0769H244.602C245.082 40.0769 245.471 39.6436 245.471 39.109V35.2375C245.471 34.703 245.082 34.2696 244.602 34.2696ZM240.286 36.2607H239.418C238.938 36.2607 238.549 36.6879 238.549 37.2148V39.1229C238.549 39.6498 238.938 40.0769 239.418 40.0769H240.286C240.766 40.0769 241.155 39.6498 241.155 39.1229V37.2148C241.155 36.6879 240.766 36.2607 240.286 36.2607Z" fill="white"/>
<path fill-rule="evenodd" clip-rule="evenodd" d="M266.862 32.0883C268.887 32.0884 270.835 32.8392 272.302 34.1855C272.413 34.2895 272.589 34.2882 272.698 34.1826L273.755 33.1538C273.81 33.1003 273.841 33.0278 273.84 32.9523C273.84 32.8768 273.808 32.8046 273.752 32.7517C269.9 29.1896 263.823 29.1896 259.971 32.7517C259.915 32.8046 259.883 32.8768 259.883 32.9522C259.882 33.0277 259.913 33.1002 259.968 33.1538L261.025 34.1826C261.133 34.2883 261.31 34.2896 261.421 34.1855C262.889 32.8391 264.836 32.0883 266.862 32.0883ZM266.859 35.5247C267.964 35.5246 269.03 35.9413 269.849 36.6938C269.96 36.8005 270.135 36.7982 270.243 36.6885L271.291 35.6143C271.346 35.5579 271.377 35.4815 271.376 35.4021C271.375 35.3226 271.343 35.2468 271.286 35.1916C268.792 32.8378 264.928 32.8378 262.434 35.1916C262.377 35.2468 262.345 35.3227 262.344 35.4021C262.344 35.4816 262.374 35.558 262.43 35.6143L263.478 36.6885C263.586 36.7982 263.76 36.8005 263.871 36.6938C264.69 35.9418 265.755 35.5251 266.859 35.5247ZM268.915 37.7993C268.916 37.8851 268.886 37.9678 268.831 38.0279L267.059 40.0267C267.007 40.0854 266.936 40.1185 266.862 40.1185C266.788 40.1185 266.717 40.0854 266.665 40.0267L264.893 38.0279C264.838 37.9678 264.808 37.885 264.809 37.7992C264.811 37.7135 264.844 37.6322 264.901 37.5747C266.033 36.5049 267.691 36.5049 268.823 37.5747C268.88 37.6323 268.913 37.7135 268.915 37.7993Z" fill="white"/>
<rect opacity="0.35" x="279.947" y="30.2138" width="19.542" height="9.77099" rx="3.09415" stroke="white" stroke-width="0.814249"/>
<path opacity="0.4" d="M300.71 33.6996V37.0181C301.366 36.737 301.792 36.0832 301.792 35.3589C301.792 34.6345 301.366 33.9807 300.71 33.6996Z" fill="white"/>
<rect x="281.168" y="31.4351" width="17.0992" height="7.32824" rx="2.03562" fill="white"/>
<path d="M38.3129 73.3257V74.9542H28.5419V76.5827H26.9134L26.9134 74.9542L25.2849 74.9542L25.2849 73.3257H26.9134L26.9134 71.6972L28.5419 71.6972V73.3257L38.3129 73.3257Z" fill="#F6F6F6"/>
<path d="M30.1704 70.0687L28.5419 70.0687L28.5419 71.6972H30.1704L30.1704 70.0687Z" fill="#F6F6F6"/>
<path d="M30.1704 70.0687H31.7989V68.4402L30.1704 68.4402V70.0687Z" fill="#F6F6F6"/>
<path d="M30.1704 78.2112H28.5419L28.5419 76.5827H30.1704V78.2112Z" fill="#F6F6F6"/>
<path d="M30.1704 78.2112H31.7989L31.7989 79.8397H30.1704V78.2112Z" fill="#F6F6F6"/>
<rect x="104.267" y="71.6972" width="130.28" height="4.8855" fill="#454545"/>
<rect x="104.267" y="71.6972" width="26.056" height="4.8855" fill="#DBFD01"/>
<path d="M131.952 170.629H95.3105V207.27H131.952V170.629Z" stroke="#5D5D5D" stroke-width="0.814249" stroke-miterlimit="10"/>
<path d="M168.593 170.629H131.952V207.27H168.593V170.629Z" stroke="#5D5D5D" stroke-width="0.814249" stroke-miterlimit="10"/>
<path d="M205.234 170.629H168.593V207.27H205.234V170.629Z" stroke="#5D5D5D" stroke-width="0.814249" stroke-miterlimit="10"/>
<path d="M241.875 170.629H205.234V207.27H241.875V170.629Z" stroke="#5D5D5D" stroke-width="0.814249" stroke-miterlimit="10"/>
<path d="M131.952 207.27H95.3105V243.911H131.952V207.27Z" stroke="#5D5D5D" stroke-width="0.814249" stroke-miterlimit="10"/>
<path d="M168.593 207.27H131.952V243.911H168.593V207.27Z" stroke="#5D5D5D" stroke-width="0.814249" stroke-miterlimit="10"/>
<path d="M205.234 207.27H168.593V243.911H205.234V207.27Z" stroke="#5D5D5D" stroke-width="0.814249" stroke-miterlimit="10"/>
<path d="M241.875 207.27H205.234V243.911H241.875V207.27Z" stroke="#5D5D5D" stroke-width="0.814249" stroke-miterlimit="10"/>
<path d="M131.952 243.911H95.3105V280.552H131.952V243.911Z" stroke="#5D5D5D" stroke-width="0.814249" stroke-miterlimit="10"/>
<path d="M168.593 243.911H131.952V280.552H168.593V243.911Z" stroke="#5D5D5D" stroke-width="0.814249" stroke-miterlimit="10"/>
<path d="M205.234 243.911H168.593V280.552H205.234V243.911Z" stroke="#5D5D5D" stroke-width="0.814249" stroke-miterlimit="10"/>
<path d="M241.875 243.911H205.234V280.552H241.875V243.911Z" stroke="#5D5D5D" stroke-width="0.814249" stroke-miterlimit="10"/>
<path d="M131.952 280.552H95.3105V317.193H131.952V280.552Z" stroke="#5D5D5D" stroke-width="0.814249" stroke-miterlimit="10"/>
<path d="M168.593 280.552H131.952V317.193H168.593V280.552Z" stroke="#5D5D5D" stroke-width="0.814249" stroke-miterlimit="10"/>
<path d="M205.234 280.552H168.593V317.193H205.234V280.552Z" stroke="#5D5D5D" stroke-width="0.814249" stroke-miterlimit="10"/>
<path d="M241.875 280.552H205.234V317.193H241.875V280.552Z" stroke="#5D5D5D" stroke-width="0.814249" stroke-miterlimit="10"/>
<path d="M205.234 170.629L241.875 97.3461" stroke="#5D5D5D" stroke-width="0.814249" stroke-miterlimit="10"/>
<path d="M168.593 170.629V97.3461" stroke="#5D5D5D" stroke-width="0.814249" stroke-miterlimit="10"/>
<path d="M131.952 170.629L95.3105 97.3461" stroke="#5D5D5D" stroke-width="0.814249" stroke-miterlimit="10"/>
<path d="M241.875 170.629L315.158 97.3461" stroke="#5D5D5D" stroke-width="0.814249" stroke-miterlimit="10"/>
<path d="M241.875 207.27L315.158 170.629" stroke="#5D5D5D" stroke-width="0.814249" stroke-miterlimit="10"/>
<path d="M241.875 243.911H315.158" stroke="#5D5D5D" stroke-width="0.814249" stroke-miterlimit="10"/>
<path d="M241.875 280.552L315.158 317.193" stroke="#5D5D5D" stroke-width="0.814249" stroke-miterlimit="10"/>
<path d="M241.875 317.193L315.158 390.476" stroke="#5D5D5D" stroke-width="0.814249" stroke-miterlimit="10"/>
<path d="M205.234 317.193L241.875 390.476" stroke="#5D5D5D" stroke-width="0.814249" stroke-miterlimit="10"/>
<path d="M168.593 317.193V390.476" stroke="#5D5D5D" stroke-width="0.814249" stroke-miterlimit="10"/>
<path d="M131.952 317.193L95.3105 390.476" stroke="#5D5D5D" stroke-width="0.814249" stroke-miterlimit="10"/>
<path d="M95.3105 170.629L22.0281 97.3461" stroke="#5D5D5D" stroke-width="0.814249" stroke-miterlimit="10"/>
<path d="M95.3105 207.27L22.0281 170.629" stroke="#5D5D5D" stroke-width="0.814249" stroke-miterlimit="10"/>
<path d="M95.3105 243.911H22.0281" stroke="#5D5D5D" stroke-width="0.814249" stroke-miterlimit="10"/>
<path d="M95.3105 280.552L22.0281 317.193" stroke="#5D5D5D" stroke-width="0.814249" stroke-miterlimit="10"/>
<path d="M95.3105 317.193L22.0281 390.476" stroke="#5D5D5D" stroke-width="0.814249" stroke-miterlimit="10"/>
<path d="M315.158 97.7532H22.0281V390.883H315.158V97.7532Z" stroke="#5D5D5D" stroke-width="0.814249" stroke-miterlimit="10"/>
<path d="M290.73 121.774H46.4556V366.048H290.73V121.774Z" stroke="#5D5D5D" stroke-width="0.814249" stroke-miterlimit="10"/>
<path d="M266.303 146.201H70.8831V341.621H266.303V146.201Z" stroke="#5D5D5D" stroke-width="0.814249" stroke-miterlimit="10"/>
<g clip-path="url(#clip1_3008_59623)">
<path d="M267.463 207.515V235.415H258.122V244.695H239.563V235.415H230.223V319.114H230.162V328.455H109.283V235.415H100.004V244.695H81.3838V235.415H72.1042V207.515H81.3838V198.175H90.7244V188.895H100.004V179.616H109.283V170.275H137.183V160.996H155.803V170.275H183.703V160.996H202.323V170.275H230.223V179.616H239.563V188.895H248.843V198.175H258.122V207.515H267.463Z" fill="#DBFD01"/>
<path d="M152.972 250.757C154.312 251.595 155.64 253.798 156.316 256.672C156.859 259.09 159.611 260.384 162.038 259.881C164.537 259.342 166.13 257.294 165.997 254.888C165.913 252.553 163.571 250.853 160.988 250.973C157.861 251.14 153.262 248.183 153.105 244.016C152.936 239.849 156.69 235.108 162.159 233.815C164.826 233.192 166.287 230.857 166.166 228.571C166.082 226.152 163.957 224.619 161.41 225.158C158.911 225.661 157.064 227.912 157.028 230.402C156.992 232.115 155.99 235.108 153.986 237.395C152.187 239.478 149.725 240.472 148.228 240.975C145.56 241.897 143.677 243.896 143.761 246.351C143.846 248.434 145.258 249.895 147.721 249.895C149.978 249.859 151.475 249.859 152.984 250.769L152.972 250.757Z" fill="black"/>
<path d="M147.383 238.389C150.268 238.389 152.139 234.725 152.682 232.522C153.31 230.103 152.767 225.362 157.813 224.188C160.529 223.733 165.201 220.812 164.404 218.98C163.74 217.028 158.066 219.064 156.304 221.099C156.304 221.099 155.181 222.177 155.012 223.266C154.131 227.553 148.916 228.846 146.538 232.761C145.499 234.509 145.198 236.305 145.62 237.383C145.91 238.005 146.586 238.377 147.371 238.377L147.383 238.389Z" fill="black"/>
<path d="M192.664 246.387C190.66 249.141 187.992 247.261 187.787 244.303C187.582 241.142 183.405 239.718 180.23 241.969C176.391 244.675 170.717 243.681 168.967 240.089C167.47 235.3 159.949 236.174 157.74 241.083C155.857 245.501 160.662 249.584 165.333 247.117C169.631 244.579 176.017 244.411 177.478 248.53C178.226 250.733 179.82 251.368 181.317 251.571C184.407 251.942 186.821 247.369 190.044 249.404C191.215 250.158 190.503 252.78 191.71 252.613C192 252.529 192.338 252.242 192.712 251.823C193.883 250.53 194.511 248.901 194.547 247.321C194.547 246.818 194.547 246.399 194.511 246.111C194.306 245.357 193.219 245.489 192.676 246.363L192.664 246.387Z" fill="black"/>
<path d="M193.207 233.935C192.918 233.97 192.664 234.138 192.459 234.39C192.254 234.677 192.036 234.641 191.879 234.809C190.672 236.102 184.914 236.102 183.996 233.851C183.284 232.055 184.334 230.522 182.958 228.81C180.121 225.182 176.114 227.313 175.075 226.056C174.363 225.134 173.578 223.805 175.872 220.141C177.248 217.974 173.699 216.023 170.198 216.813C167.856 217.352 166.07 219.064 166.106 220.764C166.142 222.093 167.772 222.967 169.945 223.35C171.78 223.685 173.289 224.979 173.53 226.511C173.651 227.182 173.651 227.924 173.24 228.594C170.778 232.797 171.357 235.802 172.408 236.928C174.122 238.808 177.212 239.43 180.966 237.048C181.304 236.844 181.63 236.629 181.968 236.509C185.18 235.383 189.936 237.215 190.853 240.424C191.976 244.375 195.115 244.375 195.73 240.137C196.189 237.85 195.561 233.683 193.231 233.935H193.207Z" fill="black"/>
<path d="M184.902 223.518C185.904 223.398 187.992 224.559 187.823 225.517C187.075 229.971 191.24 233.935 193.582 232.139C194.499 231.181 194.499 228.642 193.92 227.684C193.123 226.439 192.254 224.44 189.658 224.224C187.159 224.021 186.773 223.099 186.194 221.686C185.397 219.77 184.31 218.98 182.524 218.226C181.099 217.639 178.178 217.268 177.888 219.016C177.26 222.225 183.441 223.685 184.902 223.518Z" fill="black"/>
<path d="M179.844 258.588C177.755 259.462 177.381 257.881 178.093 256.337C179.059 254.133 178.093 253.008 178.093 253.008C175.546 249.296 166.698 252.505 167.869 257.175C168.363 259.593 165.696 261.928 162.774 262.922C157.016 264.754 154.674 260.336 154.843 257.929C155.048 254.768 149.254 251.392 146.96 254.181C145.874 255.51 146.622 258.348 148.759 259.893C149.725 260.515 150.183 260.731 151.716 261.138C156.726 262.515 158.646 266.131 158.646 266.131C159.648 267.759 167.579 267.508 167.205 265.089C166.625 264.215 167.784 263.173 168.545 262.251C170.343 260.084 172.721 260.336 174.846 259.09C177.019 257.845 177.055 260.216 176.512 260.839C175.969 261.509 175.546 262.251 175.305 262.958C174.762 267.496 185.409 262.036 184.697 258.839C184.069 257.091 181.655 257.881 179.856 258.588H179.844Z" fill="black"/>
<path d="M90.3787 207.455H81.0381V216.796H90.3787V207.455Z" fill="black"/>
<path d="M81.0379 216.796H71.6973V226.136H81.0379V216.796Z" fill="black"/>
<path d="M99.7195 198.175H90.3789V207.516H99.7195V198.175Z" fill="black"/>
<path d="M108.998 188.834H99.6577V198.175H108.998V188.834Z" fill="black"/>
<path d="M118.278 179.555H108.938V188.896H118.278V179.555Z" fill="black"/>
<path d="M146.178 170.275H136.837V179.616H146.178V170.275Z" fill="black"/>
<path d="M155.457 179.555H146.117V188.895H155.457V179.555Z" fill="black"/>
<path d="M164.797 188.896H155.457V198.236H164.797V188.896Z" fill="black"/>
<path d="M257.777 207.455H248.436V216.796H257.777V207.455Z" fill="black"/>
<path d="M267.118 216.796H257.777V226.136H267.118V216.796Z" fill="black"/>
<path d="M248.437 198.175H239.096V207.516H248.437V198.175Z" fill="black"/>
<path d="M239.157 188.835H229.816V198.175H239.157V188.835Z" fill="black"/>
<path d="M229.816 179.555H220.475V188.895H229.816V179.555Z" fill="black"/>
<path d="M201.978 170.275H192.637V179.616H201.978V170.275Z" fill="black"/>
<path d="M192.637 179.555H183.296V188.896H192.637V179.555Z" fill="black"/>
<path d="M183.357 188.896H174.017V198.236H183.357V188.896Z" fill="black"/>
<path d="M212.574 220.32C211.829 220.32 211.153 220.222 210.545 220.024C209.937 219.819 209.409 219.53 208.961 219.158C208.52 218.785 208.178 218.337 207.935 217.813C207.691 217.288 207.57 216.707 207.57 216.068V216C207.57 215.134 207.783 214.385 208.208 213.754C208.634 213.116 209.227 212.622 209.987 212.272C210.746 211.923 211.628 211.748 212.631 211.748C213.49 211.748 214.258 211.873 214.934 212.124C215.61 212.367 216.161 212.709 216.587 213.15C217.012 213.591 217.271 214.108 217.362 214.701H215.105C215.014 214.427 214.854 214.195 214.626 214.005C214.398 213.808 214.113 213.663 213.771 213.572C213.437 213.473 213.057 213.424 212.631 213.424C212.076 213.424 211.59 213.519 211.172 213.709C210.754 213.899 210.431 214.161 210.203 214.495C209.975 214.83 209.861 215.221 209.861 215.669V216.388C209.861 216.828 209.975 217.22 210.203 217.562C210.431 217.904 210.754 218.17 211.172 218.36C211.59 218.542 212.076 218.633 212.631 218.633C213.049 218.633 213.425 218.588 213.76 218.497C214.094 218.398 214.375 218.253 214.603 218.063C214.839 217.866 215.006 217.63 215.105 217.357H217.362C217.271 217.949 217.009 218.466 216.575 218.907C216.15 219.348 215.591 219.693 214.9 219.944C214.216 220.195 213.441 220.32 212.574 220.32Z" fill="black"/>
<path d="M199.127 220.184V211.874H206.913V213.572H201.305V220.184H199.127ZM201.122 217.174V215.476H206.309V217.174H201.122Z" fill="black"/>
</g>
</g>
<rect x="4.92875" y="4.92875" width="328.142" height="701.883" rx="36.6412" stroke="#444444" stroke-width="8.14249"/>
<defs>
<linearGradient id="paint0_linear_3008_59623" x1="169" y1="-181.534" x2="169" y2="512.206" gradientUnits="userSpaceOnUse">
<stop stop-color="#2B2B2B"/>
<stop offset="1" stop-color="#2B2B2B" stop-opacity="0"/>
</linearGradient>
<linearGradient id="paint1_linear_3008_59623" x1="169" y1="-181.534" x2="169" y2="512.206" gradientUnits="userSpaceOnUse">
<stop stop-color="#2B2B2B"/>
<stop offset="1" stop-color="#2B2B2B" stop-opacity="0"/>
</linearGradient>
<linearGradient id="paint2_linear_3008_59623" x1="169" y1="-181.534" x2="169" y2="512.206" gradientUnits="userSpaceOnUse">
<stop stop-color="#2B2B2B"/>
<stop offset="1" stop-color="#2B2B2B" stop-opacity="0"/>
</linearGradient>
<linearGradient id="paint3_linear_3008_59623" x1="169" y1="-181.534" x2="169" y2="512.206" gradientUnits="userSpaceOnUse">
<stop stop-color="#2B2B2B"/>
<stop offset="1" stop-color="#2B2B2B" stop-opacity="0"/>
</linearGradient>
<linearGradient id="paint4_linear_3008_59623" x1="169" y1="-181.534" x2="169" y2="512.206" gradientUnits="userSpaceOnUse">
<stop stop-color="#2B2B2B"/>
<stop offset="1" stop-color="#2B2B2B" stop-opacity="0"/>
</linearGradient>
<linearGradient id="paint5_linear_3008_59623" x1="169" y1="-181.534" x2="169" y2="512.206" gradientUnits="userSpaceOnUse">
<stop stop-color="#2B2B2B"/>
<stop offset="1" stop-color="#2B2B2B" stop-opacity="0"/>
</linearGradient>
<clipPath id="clip0_3008_59623">
<rect x="9" y="9" width="320" height="693.74" rx="32.57" fill="white"/>
</clipPath>
<clipPath id="clip1_3008_59623">
<rect width="195.42" height="167.459" fill="white" transform="translate(71.6973 160.995)"/>
</clipPath>
</defs>
</svg>
