<svg width="219" height="48" viewBox="0 0 219 48" fill="none" xmlns="http://www.w3.org/2000/svg">
<path d="M8.68029 32.4131C9.9427 33.2092 11.1938 35.3019 11.8306 38.0314C12.3424 40.3288 14.9355 41.5571 17.2215 41.0795C19.5758 40.5677 21.077 38.6229 20.9519 36.3368C20.8723 34.1191 18.6659 32.5041 16.2321 32.6178C13.2864 32.7771 8.95324 29.9679 8.80539 26.01C8.64616 22.0522 12.1832 17.5484 17.3352 16.3201C19.8487 15.7287 21.2249 13.511 21.1111 11.3387C21.0315 9.04131 19.0298 7.58555 16.6301 8.09734C14.2759 8.57501 12.5358 10.7132 12.5017 13.0788C12.4675 14.7051 11.5236 17.5484 9.63563 19.7207C7.94103 21.6996 5.62091 22.6436 4.21064 23.1213C1.69717 23.997 -0.0770367 25.8963 0.00257533 28.2278C0.0821873 30.2067 1.41284 31.5943 3.73297 31.5943C5.85974 31.5601 7.27001 31.5601 8.69166 32.4245L8.68029 32.4131Z" fill="white"/>
<path d="M3.41452 20.6646C6.1327 20.6646 7.89554 17.1845 8.40733 15.0918C8.99873 12.7944 8.48694 8.29067 13.2409 7.1761C15.7999 6.74392 20.2013 3.96887 19.4507 2.22878C18.8251 0.374959 13.4798 2.30839 11.8193 4.24183C11.8193 4.24183 10.7616 5.26541 10.6023 6.30037C9.77211 10.372 4.85891 11.6003 2.6184 15.3193C1.64031 16.9797 1.35598 18.6857 1.75404 19.7093C2.027 20.3007 2.66389 20.6533 3.40315 20.6533L3.41452 20.6646Z" fill="white"/>
<path d="M46.0752 28.2619C44.1872 30.8777 41.6738 29.0922 41.4804 26.283C41.2871 23.2805 37.352 21.9271 34.3608 24.0652C30.7442 26.6356 25.3988 25.6916 23.7497 22.2796C22.3394 17.7304 15.254 18.5606 13.1727 23.2236C11.3985 27.4203 15.925 31.2985 20.3264 28.9557C24.3752 26.5446 30.3916 26.3853 31.7678 30.2977C32.4729 32.3904 33.9742 32.9931 35.3844 33.1865C38.296 33.5391 40.5706 29.1945 43.6072 31.1279C44.7104 31.8445 44.0394 34.3352 45.1767 34.176C45.4497 34.0963 45.7681 33.8234 46.1207 33.4253C47.2239 32.197 47.8153 30.6503 47.8494 29.149C47.8494 28.6714 47.8494 28.2733 47.8153 28.0003C47.6219 27.2838 46.5983 27.4089 46.0866 28.2392L46.0752 28.2619Z" fill="white"/>
<path d="M46.587 16.4339C46.314 16.468 46.0752 16.6272 45.8818 16.866C45.6885 17.139 45.4838 17.1049 45.3359 17.2641C44.1986 18.4924 38.7736 18.4924 37.9093 16.3542C37.2382 14.6483 38.2277 13.1925 36.9312 11.5662C34.2585 8.12009 30.4826 10.1445 29.5045 8.95033C28.8335 8.0746 28.0942 6.81218 30.2551 3.332C31.5517 1.27346 28.208 -0.580365 24.9098 0.170263C22.7034 0.682054 21.0201 2.30841 21.0543 3.9234C21.0884 5.18582 22.6238 6.01606 24.6709 6.38C26.3996 6.69845 27.8213 7.92675 28.0487 9.38251C28.1625 10.0194 28.1625 10.7245 27.7758 11.3614C25.4557 15.3534 26.0016 18.2081 26.991 19.2771C28.606 21.0627 31.5176 21.6541 35.0546 19.3909C35.373 19.1975 35.6801 18.9928 35.9986 18.8791C39.0238 17.81 43.5048 19.5501 44.3692 22.5981C45.4269 26.3512 48.3839 26.3512 48.964 22.3251C49.3961 20.1529 48.8047 16.195 46.6097 16.4339H46.587Z" fill="white"/>
<path d="M38.7623 6.5392C39.7062 6.42547 41.6738 7.52867 41.5146 8.43852C40.8094 12.6693 44.7332 16.4338 46.9395 14.7279C47.8039 13.818 47.8039 11.4069 47.258 10.4971C46.5074 9.31425 45.6885 7.41493 43.2433 7.21022C40.889 7.01687 40.5251 6.14114 39.9792 4.79911C39.2286 2.97941 38.205 2.22878 36.5218 1.51227C35.1797 0.954989 32.4274 0.602421 32.1545 2.2629C31.5631 5.3109 37.3861 6.69843 38.7623 6.5392Z" fill="white"/>
<path d="M33.9969 39.8512C32.0293 40.6814 31.6768 39.1802 32.3478 37.713C33.2576 35.6204 32.3478 34.5513 32.3478 34.5513C29.9481 31.0256 21.6115 34.0736 22.7147 38.5091C23.181 40.8065 20.6676 43.0243 17.9153 43.9682C12.4903 45.7083 10.2839 41.5117 10.4431 39.2256C10.6365 36.2231 5.17735 33.0159 3.01646 35.6659C1.99287 36.9283 2.69801 39.6237 4.71105 41.0908C5.6209 41.6822 6.05309 41.887 7.49747 42.2736C12.2173 43.5816 14.0257 47.0163 14.0257 47.0163C14.9696 48.563 22.4418 48.3242 22.0892 46.0268C21.5433 45.1965 22.6351 44.2071 23.3516 43.3314C25.0462 41.2728 27.2867 41.5116 29.2884 40.3288C31.3356 39.146 31.3697 41.3979 30.8579 41.9893C30.3461 42.6262 29.9481 43.3313 29.7206 44.0024C29.2088 48.3128 39.2399 43.1266 38.5689 40.09C37.9775 38.4295 35.7029 39.1802 34.0083 39.8512H33.9969Z" fill="white"/>
<path fill-rule="evenodd" clip-rule="evenodd" d="M91.2381 14.52C93.0288 14.52 94.6512 14.7506 96.1051 15.2115C97.559 15.6725 98.8092 16.3464 99.8553 17.2329C100.901 18.1017 101.708 19.1477 102.276 20.3711C102.843 21.5768 103.127 22.9332 103.127 24.4403V24.5997C103.127 26.6033 102.63 28.3499 101.637 29.8393C100.644 31.3286 99.2524 32.4809 97.4617 33.2965C95.6887 34.1121 93.614 34.52 91.2381 34.52C89.4828 34.52 87.8781 34.2895 86.4243 33.8285C84.9704 33.3498 83.7115 32.6759 82.6477 31.8071C81.6017 30.9383 80.7948 29.8923 80.2274 28.6689C79.6601 27.4455 79.3764 26.0891 79.3764 24.5997V24.4403C79.3764 22.419 79.8728 20.6724 80.8658 19.2007C81.8587 17.7114 83.2418 16.5591 85.0149 15.7436C86.8056 14.928 88.88 14.52 91.2381 14.52ZM91.2381 18.4297C89.9261 18.4297 88.7825 18.6511 87.8073 19.0944C86.8321 19.5377 86.0697 20.1584 85.5201 20.9563C84.9882 21.7364 84.7223 22.6405 84.7223 23.6688V25.3444C84.7223 26.3728 84.9882 27.2859 85.5201 28.0837C86.0697 28.8638 86.8322 29.4756 87.8073 29.9188C88.7825 30.3621 89.9261 30.584 91.2381 30.584C92.5856 30.584 93.7469 30.3621 94.7221 29.9188C95.6972 29.4756 96.451 28.8639 96.9829 28.0837C97.5147 27.2859 97.7807 26.3728 97.7807 25.3444V23.6688C97.7807 22.6405 97.5057 21.7364 96.9561 20.9563C96.4242 20.1584 95.6708 19.5377 94.6957 19.0944C93.7205 18.6511 92.5679 18.4297 91.2381 18.4297Z" fill="white"/>
<path fill-rule="evenodd" clip-rule="evenodd" d="M116.303 14.52C118.093 14.52 119.716 14.7505 121.17 15.2115C122.624 15.6725 123.873 16.3464 124.919 17.2329C125.966 18.1017 126.772 19.1477 127.34 20.3711C127.907 21.5768 128.191 22.9332 128.191 24.4403V24.5997C128.191 26.6033 127.694 28.3499 126.701 29.8393C125.709 31.3286 124.317 32.4809 122.526 33.2965C120.753 34.1121 118.679 34.52 116.303 34.52C114.547 34.52 112.943 34.2895 111.489 33.8285C110.035 33.3498 108.776 32.6759 107.712 31.8071C106.666 30.9383 105.859 29.8923 105.292 28.6689C104.725 27.4455 104.441 26.0891 104.441 24.5997V24.4403C104.441 22.419 104.937 20.6724 105.93 19.2007C106.923 17.7115 108.306 16.5591 110.079 15.7436C111.87 14.9279 113.945 14.52 116.303 14.52ZM116.303 18.4297C114.991 18.4297 113.847 18.6512 112.872 19.0944C111.897 19.5377 111.134 20.1584 110.585 20.9563C110.053 21.7364 109.787 22.6405 109.786 23.6688V25.3444C109.786 26.3728 110.053 27.2858 110.585 28.0837C111.134 28.8639 111.897 29.4756 112.872 29.9188C113.847 30.3621 114.991 30.584 116.303 30.584C117.65 30.584 118.812 30.3621 119.787 29.9188C120.762 29.4756 121.516 28.8638 122.048 28.0837C122.579 27.2859 122.845 26.3727 122.845 25.3444V23.6688C122.845 22.6405 122.57 21.7364 122.021 20.9563C121.489 20.1584 120.735 19.5377 119.76 19.0944C118.785 18.6512 117.632 18.4297 116.303 18.4297Z" fill="white"/>
<path d="M207.574 14.52C209.577 14.52 211.368 14.8127 212.946 15.3978C214.524 15.9652 215.809 16.763 216.802 17.7913C217.795 18.8197 218.398 20.0254 218.611 21.4084H213.345C213.132 20.7701 212.76 20.2292 212.228 19.7859C211.696 19.325 211.031 18.9882 210.233 18.7754C209.551 18.5738 208.787 18.4602 207.941 18.4349L207.574 18.4297C206.279 18.4297 205.145 18.6512 204.17 19.0944C203.194 19.5377 202.441 20.1494 201.909 20.9295C201.377 21.7096 201.111 22.6228 201.111 23.6688V25.3444C201.111 26.3727 201.377 27.2859 201.909 28.0837C202.441 28.8816 203.194 29.5023 204.17 29.9456C205.145 30.3711 206.279 30.5839 207.574 30.584C208.549 30.584 209.427 30.4773 210.207 30.2646C210.987 30.0341 211.643 29.6973 212.175 29.2541C212.724 28.7931 213.115 28.2435 213.345 27.6052H218.611C218.398 28.9882 217.787 30.194 216.776 31.2223C215.783 32.2507 214.48 33.0571 212.866 33.6422C211.271 34.2273 209.462 34.52 207.441 34.52C205.703 34.52 204.125 34.2895 202.707 33.8285C201.288 33.3498 200.056 32.6759 199.01 31.8071C197.982 30.9383 197.184 29.8923 196.616 28.6689C196.049 27.4455 195.765 26.0891 195.765 24.5997V24.4403C195.765 22.419 196.262 20.6724 197.255 19.2007C198.248 17.7115 199.631 16.5591 201.403 15.7436C203.176 14.928 205.233 14.52 207.574 14.52Z" fill="white"/>
<path d="M78.9077 14.8126V18.7754H65.8224V23.2167H77.4983V27.1795H65.8224V34.201H60.7428V14.8126H78.9077Z" fill="white"/>
<path d="M132.877 14.8126L138.967 29.1741L139.339 30.2646H139.685L140.084 29.1741L146.121 14.8126H151.68L142.77 34.201H136.174L127.318 14.8126H132.877Z" fill="white"/>
<path fill-rule="evenodd" clip-rule="evenodd" d="M169.702 34.201H164.49L162.732 30.1319H152.3L150.527 34.201H145.474L154.224 14.8126H161.006L169.702 34.201ZM156.83 19.7328L153.922 26.4085H161.123L158.24 19.7328L157.628 18.3233H157.389L156.83 19.7328Z" fill="white"/>
<path d="M195.296 14.8126V18.7754H182.211V23.2167H193.887V27.1795H182.211V34.201H177.131V14.8126H195.296Z" fill="white"/>
</svg>
