<svg width="240" height="206" viewBox="0 0 240 206" fill="none" xmlns="http://www.w3.org/2000/svg">
<g clip-path="url(#clip0_2875_105509)">
<path d="M240.425 57.1322V91.3964H228.953V102.793H206.161V91.3964H194.689V194.189H194.614V205.661H46.1606V91.3964H34.7642V102.793H11.8963V91.3964H0.499878V57.1322H11.8963V45.6607H23.3677V34.2643H34.7642V22.8679H46.1606V11.3964H80.4249V0H103.293V11.3964H137.557V0H160.425V11.3964H194.689V22.8679H206.161V34.2643H217.557V45.6607H228.953V57.1322H240.425Z" fill="#DBFD01"/>
<path d="M99.8154 110.238C101.461 111.268 103.092 113.973 103.922 117.503C104.589 120.473 107.97 122.061 110.95 121.443C114.018 120.782 115.975 118.267 115.812 115.312C115.709 112.444 112.832 110.356 109.66 110.503C105.82 110.709 100.171 107.077 99.9785 101.96C99.7709 96.8425 104.382 91.0194 111.098 89.4313C114.374 88.6667 116.168 85.7993 116.02 82.9907C115.916 80.0203 113.307 78.1381 110.179 78.7999C107.11 79.4174 104.841 82.1819 104.797 85.2405C104.752 87.3433 103.522 91.0194 101.061 93.828C98.8517 96.3866 95.8273 97.6071 93.9889 98.2247C90.7124 99.357 88.3996 101.813 88.5034 104.827C88.6071 107.386 90.3417 109.18 93.3662 109.18C96.1386 109.136 97.977 109.136 99.8302 110.253L99.8154 110.238Z" fill="black"/>
<path d="M92.9511 95.0485C96.4944 95.0485 98.7924 90.5489 99.4596 87.8432C100.231 84.8729 99.5634 79.0498 105.761 77.6088C109.096 77.05 114.834 73.462 113.855 71.2122C113.04 68.8154 106.072 71.3152 103.907 73.8149C103.907 73.8149 102.529 75.1384 102.321 76.4765C101.239 81.7408 94.8339 83.3289 91.9133 88.1373C90.6383 90.2842 90.2676 92.4899 90.7865 93.8133C91.1423 94.5779 91.9726 95.0338 92.9363 95.0338L92.9511 95.0485Z" fill="black"/>
<path d="M148.562 104.871C146.101 108.253 142.825 105.945 142.573 102.313C142.321 98.4306 137.191 96.6807 133.292 99.4452C128.577 102.768 121.609 101.548 119.459 97.1366C117.621 91.2547 108.385 92.3281 105.672 98.3571C103.359 103.783 109.259 108.797 114.997 105.768C120.275 102.651 128.118 102.445 129.912 107.503C130.831 110.209 132.788 110.988 134.626 111.238C138.422 111.694 141.387 106.077 145.345 108.577C146.783 109.503 145.909 112.724 147.391 112.518C147.747 112.415 148.162 112.062 148.622 111.547C150.06 109.959 150.831 107.959 150.875 106.018C150.875 105.401 150.875 104.886 150.831 104.533C150.579 103.607 149.244 103.768 148.577 104.842L148.562 104.871Z" fill="black"/>
<path d="M149.23 89.5784C148.874 89.6225 148.562 89.8284 148.31 90.1372C148.058 90.4901 147.791 90.446 147.599 90.6518C146.116 92.2399 139.044 92.2399 137.918 89.4755C137.043 87.2698 138.333 85.3876 136.643 83.2848C133.158 78.8293 128.236 81.4467 126.961 79.9027C126.087 78.7704 125.123 77.1382 127.94 72.6386C129.63 69.9771 125.271 67.5802 120.972 68.5507C118.096 69.2124 115.901 71.3152 115.946 73.4032C115.99 75.0355 117.992 76.1089 120.66 76.5795C122.914 76.9912 124.767 78.5793 125.064 80.4615C125.212 81.2849 125.212 82.1966 124.708 83.0201C121.683 88.1814 122.395 91.8723 123.685 93.2546C125.79 95.5632 129.585 96.3278 134.196 93.4016C134.611 93.1516 135.012 92.8869 135.427 92.7399C139.37 91.3576 145.212 93.6075 146.339 97.5483C147.717 102.401 151.572 102.401 152.328 97.1954C152.892 94.3868 152.121 89.2696 149.259 89.5784H149.23Z" fill="black"/>
<path d="M139.029 76.7853C140.26 76.6382 142.825 78.0646 142.617 79.241C141.698 84.7111 146.813 89.5784 149.689 87.3727C150.816 86.1963 150.816 83.0789 150.104 81.9025C149.126 80.3732 148.058 77.9176 144.871 77.6529C141.802 77.4029 141.327 76.2706 140.616 74.5355C139.637 72.1827 138.303 71.2122 136.109 70.2858C134.359 69.5653 130.772 69.1095 130.416 71.2563C129.645 75.1972 137.236 76.9912 139.029 76.7853Z" fill="black"/>
<path d="M132.817 119.855C130.253 120.929 129.793 118.988 130.668 117.091C131.854 114.385 130.668 113.003 130.668 113.003C127.54 108.444 116.672 112.385 118.11 118.12C118.718 121.09 115.442 123.958 111.854 125.178C104.782 127.428 101.906 122.002 102.113 119.047C102.365 115.165 95.2491 111.018 92.4322 114.444C91.0979 116.076 92.0171 119.561 94.6412 121.458C95.8273 122.223 96.3906 122.487 98.2735 122.987C104.426 124.678 106.783 129.119 106.783 129.119C108.014 131.119 117.755 130.81 117.295 127.84C116.583 126.767 118.007 125.487 118.941 124.355C121.15 121.693 124.07 122.002 126.68 120.473C129.348 118.944 129.393 121.855 128.726 122.62C128.058 123.443 127.54 124.355 127.243 125.223C126.576 130.796 139.652 124.09 138.777 120.164C138.006 118.017 135.041 118.988 132.832 119.855H132.817Z" fill="black"/>
<path d="M76.008 154V140.878H82.254C82.854 140.878 83.4 140.938 83.892 141.058C84.396 141.178 84.84 141.358 85.224 141.598C85.62 141.838 85.95 142.132 86.214 142.48C86.478 142.828 86.682 143.23 86.826 143.686C86.97 144.13 87.042 144.628 87.042 145.18C87.042 146.104 86.838 146.89 86.43 147.538C86.034 148.174 85.476 148.66 84.756 148.996C84.048 149.32 83.208 149.482 82.236 149.482H78.834V147.088H81.93C82.518 147.088 82.968 146.944 83.28 146.656C83.604 146.368 83.766 145.978 83.766 145.486V144.964C83.766 144.436 83.604 144.034 83.28 143.758C82.956 143.482 82.506 143.344 81.93 143.344H79.122V154H76.008ZM86.5945 154L91.2385 140.878H95.4685L100.113 154H96.9445L93.7585 144.712L93.3985 143.146H93.2365L92.8945 144.712L89.7085 154H86.5945ZM90.3385 151.354L91.0945 149.068H95.5585L96.2965 151.354H90.3385ZM101.549 154V140.878H108.479C109.463 140.878 110.285 141.046 110.945 141.382C111.605 141.718 112.103 142.186 112.439 142.786C112.775 143.386 112.943 144.088 112.943 144.892C112.943 145.588 112.811 146.2 112.547 146.728C112.283 147.244 111.911 147.67 111.431 148.006C110.963 148.33 110.399 148.546 109.739 148.654L109.631 148.636L109.685 148.42L113.465 154H109.703L106.571 149.212H104.375V146.818H107.903C108.467 146.818 108.893 146.686 109.181 146.422C109.469 146.158 109.613 145.798 109.613 145.342V144.766C109.613 144.298 109.463 143.938 109.163 143.686C108.875 143.422 108.455 143.29 107.903 143.29H104.663V154H101.549ZM118.354 154V143.344H114.124V140.878H125.662V143.344H121.468V154H118.354ZM127.196 154V140.878H131.3L135.926 148.978L136.25 149.716H136.376V140.878H139.4V154H135.386L130.598 145.72L130.31 145.036H130.184V154H127.196ZM141.399 154V140.878H151.551V143.326H144.513V151.534H151.587V154H141.399ZM144.225 148.474V146.17H149.427V148.474H144.225ZM153.246 154V140.878H160.176C161.16 140.878 161.982 141.046 162.642 141.382C163.302 141.718 163.8 142.186 164.136 142.786C164.472 143.386 164.64 144.088 164.64 144.892C164.64 145.588 164.508 146.2 164.244 146.728C163.98 147.244 163.608 147.67 163.128 148.006C162.66 148.33 162.096 148.546 161.436 148.654L161.328 148.636L161.382 148.42L165.162 154H161.4L158.268 149.212H156.072V146.818H159.6C160.164 146.818 160.59 146.686 160.878 146.422C161.166 146.158 161.31 145.798 161.31 145.342V144.766C161.31 144.298 161.16 143.938 160.86 143.686C160.572 143.422 160.152 143.29 159.6 143.29H156.36V154H153.246Z" fill="black"/>
<path d="M22.9431 57.0576H11.4717V68.529H22.9431V57.0576Z" fill="black"/>
<path d="M11.4714 68.5293H0V80.0007H11.4714V68.5293Z" fill="black"/>
<path d="M34.4147 45.6611H22.9432V57.1325H34.4147V45.6611Z" fill="black"/>
<path d="M45.8104 34.1895H34.339V45.6609H45.8104V34.1895Z" fill="black"/>
<path d="M57.2069 22.793H45.7355V34.2644H57.2069V22.793Z" fill="black"/>
<path d="M91.4714 11.3965H80V22.8679H91.4714V11.3965Z" fill="black"/>
<path d="M102.868 22.793H91.3965V34.2644H102.868V22.793Z" fill="black"/>
<path d="M114.339 34.2646H102.867V45.7361H114.339V34.2646Z" fill="black"/>
<path d="M228.529 57.0576H217.058V68.529H228.529V57.0576Z" fill="black"/>
<path d="M240.001 68.5293H228.529V80.0007H240.001V68.5293Z" fill="black"/>
<path d="M217.058 45.6611H205.587V57.1325H217.058V45.6611Z" fill="black"/>
<path d="M205.661 34.1895H194.189V45.6609H205.661V34.1895Z" fill="black"/>
<path d="M194.189 22.793H182.718V34.2644H194.189V22.793Z" fill="black"/>
<path d="M160.001 11.3965H148.529V22.8679H160.001V11.3965Z" fill="black"/>
<path d="M148.529 22.793H137.058V34.2644H148.529V22.793Z" fill="black"/>
<path d="M137.133 34.2646H125.661V45.7361H137.133V34.2646Z" fill="black"/>
<path d="M173.015 72.8586C172.1 72.8586 171.269 72.7372 170.523 72.4946C169.776 72.2426 169.127 71.8879 168.577 71.4306C168.035 70.9732 167.615 70.4226 167.317 69.7786C167.018 69.1346 166.869 68.4206 166.869 67.6366V67.5526C166.869 66.4886 167.13 65.5692 167.653 64.7946C168.175 64.0106 168.903 63.4039 169.837 62.9746C170.77 62.5452 171.853 62.3306 173.085 62.3306C174.139 62.3306 175.082 62.4846 175.913 62.7926C176.743 63.0912 177.42 63.5112 177.943 64.0526C178.465 64.5939 178.783 65.2286 178.895 65.9566H176.123C176.011 65.6206 175.815 65.3359 175.535 65.1026C175.255 64.8599 174.905 64.6826 174.485 64.5706C174.074 64.4492 173.607 64.3886 173.085 64.3886C172.403 64.3886 171.806 64.5052 171.293 64.7386C170.779 64.9719 170.383 65.2939 170.103 65.7046C169.823 66.1152 169.683 66.5959 169.683 67.1466V68.0286C169.683 68.5699 169.823 69.0506 170.103 69.4706C170.383 69.8906 170.779 70.2172 171.293 70.4506C171.806 70.6746 172.403 70.7866 173.085 70.7866C173.598 70.7866 174.06 70.7306 174.471 70.6186C174.881 70.4972 175.227 70.3199 175.507 70.0866C175.796 69.8439 176.001 69.5546 176.123 69.2186H178.895C178.783 69.9466 178.461 70.5812 177.929 71.1226C177.406 71.6639 176.72 72.0886 175.871 72.3966C175.031 72.7046 174.079 72.8586 173.015 72.8586Z" fill="black"/>
<path d="M156.5 72.6904V62.4844H166.062V64.5704H159.174V72.6904H156.5ZM158.95 68.9944V66.9084H165.32V68.9944H158.95Z" fill="black"/>
</g>
<defs>
<clipPath id="clip0_2875_105509">
<rect width="240" height="205.661" fill="white"/>
</clipPath>
</defs>
</svg>
